<mxfile host="Electron" agent="Mozilla/5.0 (Windows NT 10.0; Win64; x64) AppleWebKit/537.36 (KHTML, like Gecko) draw.io/28.0.4 Chrome/138.0.7204.97 Electron/37.2.1 Safari/537.36" version="28.0.4" pages="3">
  <diagram name="Iron Rod" id="2D12aWE2cmYpAm4pj4T-">
    <mxGraphModel dx="2377" dy="1201" grid="1" gridSize="10" guides="1" tooltips="1" connect="1" arrows="1" fold="1" page="1" pageScale="1" pageWidth="827" pageHeight="1169" math="0" shadow="0">
      <root>
        <mxCell id="0" />
        <mxCell id="1" parent="0" />
        <mxCell id="NDK0I9O41cYQQ8gbc8DZ-1" value="Iron Rod Production" style="rounded=0;whiteSpace=wrap;html=1;dashed=1;dashPattern=8 8;fillColor=#f5f5f5;fontColor=#333333;strokeColor=#666666;align=right;verticalAlign=bottom;fontStyle=1" parent="1" vertex="1">
          <mxGeometry x="520" y="170" width="470" height="240" as="geometry" />
        </mxCell>
        <mxCell id="NDK0I9O41cYQQ8gbc8DZ-2" value="Iron Ingot Production" style="rounded=0;whiteSpace=wrap;html=1;dashed=1;dashPattern=8 8;fillColor=#f5f5f5;fontColor=#333333;strokeColor=#666666;align=right;verticalAlign=bottom;fontStyle=1" parent="1" vertex="1">
          <mxGeometry x="90" y="170" width="390" height="240" as="geometry" />
        </mxCell>
        <mxCell id="NDK0I9O41cYQQ8gbc8DZ-3" value="«Constructor»&lt;br&gt;&lt;b&gt;Iron Rod&lt;/b&gt;" style="html=1;whiteSpace=wrap;" parent="1" vertex="1">
          <mxGeometry x="700" y="280" width="110" height="50" as="geometry" />
        </mxCell>
        <mxCell id="NDK0I9O41cYQQ8gbc8DZ-4" value="" style="endArrow=classic;html=1;rounded=0;exitX=1;exitY=0.5;exitDx=0;exitDy=0;" parent="1" source="NDK0I9O41cYQQ8gbc8DZ-3" edge="1">
          <mxGeometry width="50" height="50" relative="1" as="geometry">
            <mxPoint x="810" y="304.76" as="sourcePoint" />
            <mxPoint x="890" y="305" as="targetPoint" />
          </mxGeometry>
        </mxCell>
        <mxCell id="NDK0I9O41cYQQ8gbc8DZ-5" value="&lt;div&gt;Iron Rod&lt;/div&gt;(15 / min)" style="edgeLabel;html=1;align=center;verticalAlign=middle;resizable=0;points=[];fontSize=8;" parent="NDK0I9O41cYQQ8gbc8DZ-4" vertex="1" connectable="0">
          <mxGeometry x="-0.0519" y="-2" relative="1" as="geometry">
            <mxPoint x="-7" y="-17" as="offset" />
          </mxGeometry>
        </mxCell>
        <mxCell id="NDK0I9O41cYQQ8gbc8DZ-6" value="Merge" style="rhombus;whiteSpace=wrap;html=1;" parent="1" vertex="1">
          <mxGeometry x="890" y="265" width="80" height="80" as="geometry" />
        </mxCell>
        <mxCell id="NDK0I9O41cYQQ8gbc8DZ-7" value="«Constructor»&lt;br&gt;&lt;b&gt;Iron Rod&lt;/b&gt;" style="html=1;whiteSpace=wrap;" parent="1" vertex="1">
          <mxGeometry x="700" y="340" width="110" height="50" as="geometry" />
        </mxCell>
        <mxCell id="NDK0I9O41cYQQ8gbc8DZ-8" value="" style="endArrow=classic;html=1;rounded=0;exitX=1;exitY=0.5;exitDx=0;exitDy=0;entryX=0;entryY=0.5;entryDx=0;entryDy=0;edgeStyle=orthogonalEdgeStyle;" parent="1" source="NDK0I9O41cYQQ8gbc8DZ-7" target="NDK0I9O41cYQQ8gbc8DZ-6" edge="1">
          <mxGeometry width="50" height="50" relative="1" as="geometry">
            <mxPoint x="980" y="520" as="sourcePoint" />
            <mxPoint x="1057" y="520" as="targetPoint" />
            <Array as="points">
              <mxPoint x="870" y="365" />
              <mxPoint x="870" y="305" />
            </Array>
          </mxGeometry>
        </mxCell>
        <mxCell id="NDK0I9O41cYQQ8gbc8DZ-9" value="&lt;div&gt;Iron Rod&lt;/div&gt;(15 / min)" style="edgeLabel;html=1;align=center;verticalAlign=middle;resizable=0;points=[];fontSize=8;" parent="NDK0I9O41cYQQ8gbc8DZ-8" vertex="1" connectable="0">
          <mxGeometry x="-0.0519" y="-2" relative="1" as="geometry">
            <mxPoint x="-32" y="-9" as="offset" />
          </mxGeometry>
        </mxCell>
        <mxCell id="NDK0I9O41cYQQ8gbc8DZ-16" value="" style="endArrow=classic;html=1;rounded=0;entryX=0;entryY=0.5;entryDx=0;entryDy=0;exitX=1;exitY=0.5;exitDx=0;exitDy=0;" parent="1" source="NDK0I9O41cYQQ8gbc8DZ-18" target="NDK0I9O41cYQQ8gbc8DZ-3" edge="1">
          <mxGeometry width="50" height="50" relative="1" as="geometry">
            <mxPoint x="630" y="305" as="sourcePoint" />
            <mxPoint x="870" y="370" as="targetPoint" />
          </mxGeometry>
        </mxCell>
        <mxCell id="NDK0I9O41cYQQ8gbc8DZ-17" value="&lt;div&gt;Iron Ingot&lt;/div&gt;(15 / min)" style="edgeLabel;html=1;align=center;verticalAlign=middle;resizable=0;points=[];fontSize=8;" parent="NDK0I9O41cYQQ8gbc8DZ-16" vertex="1" connectable="0">
          <mxGeometry x="0.219" y="1" relative="1" as="geometry">
            <mxPoint x="1" y="-14" as="offset" />
          </mxGeometry>
        </mxCell>
        <mxCell id="NDK0I9O41cYQQ8gbc8DZ-18" value="Split" style="rhombus;whiteSpace=wrap;html=1;" parent="1" vertex="1">
          <mxGeometry x="540" y="265" width="80" height="80" as="geometry" />
        </mxCell>
        <mxCell id="NDK0I9O41cYQQ8gbc8DZ-19" value="" style="endArrow=classic;html=1;rounded=0;entryX=0;entryY=0.5;entryDx=0;entryDy=0;exitX=1;exitY=0.5;exitDx=0;exitDy=0;edgeStyle=orthogonalEdgeStyle;" parent="1" source="NDK0I9O41cYQQ8gbc8DZ-18" target="NDK0I9O41cYQQ8gbc8DZ-7" edge="1">
          <mxGeometry width="50" height="50" relative="1" as="geometry">
            <mxPoint x="660" y="450" as="sourcePoint" />
            <mxPoint x="720" y="450" as="targetPoint" />
            <Array as="points">
              <mxPoint x="630" y="305" />
              <mxPoint x="630" y="365" />
            </Array>
          </mxGeometry>
        </mxCell>
        <mxCell id="NDK0I9O41cYQQ8gbc8DZ-20" value="&lt;div&gt;Iron Ingot&lt;/div&gt;(15 / min)" style="edgeLabel;html=1;align=center;verticalAlign=middle;resizable=0;points=[];fontSize=8;" parent="NDK0I9O41cYQQ8gbc8DZ-19" vertex="1" connectable="0">
          <mxGeometry x="0.219" y="1" relative="1" as="geometry">
            <mxPoint x="25" y="-19" as="offset" />
          </mxGeometry>
        </mxCell>
        <mxCell id="NDK0I9O41cYQQ8gbc8DZ-21" value="«Smelter»&lt;br&gt;&lt;b&gt;Iron Ingot&lt;/b&gt;" style="html=1;whiteSpace=wrap;" parent="1" vertex="1">
          <mxGeometry x="300" y="280" width="110" height="50" as="geometry" />
        </mxCell>
        <mxCell id="NDK0I9O41cYQQ8gbc8DZ-22" value="" style="endArrow=classic;html=1;rounded=0;exitX=1;exitY=0.5;exitDx=0;exitDy=0;entryX=0;entryY=0.5;entryDx=0;entryDy=0;" parent="1" source="NDK0I9O41cYQQ8gbc8DZ-21" target="NDK0I9O41cYQQ8gbc8DZ-18" edge="1">
          <mxGeometry width="50" height="50" relative="1" as="geometry">
            <mxPoint x="600" y="420" as="sourcePoint" />
            <mxPoint x="490" y="305" as="targetPoint" />
          </mxGeometry>
        </mxCell>
        <mxCell id="NDK0I9O41cYQQ8gbc8DZ-23" value="Iron Ingot&lt;div&gt;(30 / min)&lt;/div&gt;" style="edgeLabel;html=1;align=center;verticalAlign=middle;resizable=0;points=[];fontSize=8;" parent="NDK0I9O41cYQQ8gbc8DZ-22" vertex="1" connectable="0">
          <mxGeometry x="0.0548" y="1" relative="1" as="geometry">
            <mxPoint x="-12" y="-14" as="offset" />
          </mxGeometry>
        </mxCell>
        <mxCell id="NDK0I9O41cYQQ8gbc8DZ-24" value="«Miner Mk. 1»&lt;br&gt;&lt;b&gt;Impure&lt;/b&gt;" style="html=1;whiteSpace=wrap;" parent="1" vertex="1">
          <mxGeometry x="110" y="280" width="110" height="50" as="geometry" />
        </mxCell>
        <mxCell id="NDK0I9O41cYQQ8gbc8DZ-25" value="" style="endArrow=classic;html=1;rounded=0;exitX=1;exitY=0.5;exitDx=0;exitDy=0;entryX=0;entryY=0.5;entryDx=0;entryDy=0;" parent="1" source="NDK0I9O41cYQQ8gbc8DZ-24" target="NDK0I9O41cYQQ8gbc8DZ-21" edge="1">
          <mxGeometry width="50" height="50" relative="1" as="geometry">
            <mxPoint x="500" y="480" as="sourcePoint" />
            <mxPoint x="580" y="480" as="targetPoint" />
          </mxGeometry>
        </mxCell>
        <mxCell id="NDK0I9O41cYQQ8gbc8DZ-26" value="Iron Ore&lt;div&gt;(30 / min)&lt;/div&gt;" style="edgeLabel;html=1;align=center;verticalAlign=middle;resizable=0;points=[];fontSize=8;" parent="NDK0I9O41cYQQ8gbc8DZ-25" vertex="1" connectable="0">
          <mxGeometry x="0.0548" y="1" relative="1" as="geometry">
            <mxPoint y="-14" as="offset" />
          </mxGeometry>
        </mxCell>
        <mxCell id="NDK0I9O41cYQQ8gbc8DZ-27" value="«Miner Mk. 1»&lt;br&gt;&lt;b&gt;Normal&lt;/b&gt;" style="html=1;whiteSpace=wrap;" parent="1" vertex="1">
          <mxGeometry x="110" y="190" width="110" height="50" as="geometry" />
        </mxCell>
        <mxCell id="NDK0I9O41cYQQ8gbc8DZ-28" value="" style="endArrow=classic;html=1;rounded=0;exitX=1;exitY=0.5;exitDx=0;exitDy=0;fontSize=8;" parent="1" source="NDK0I9O41cYQQ8gbc8DZ-27" edge="1">
          <mxGeometry width="50" height="50" relative="1" as="geometry">
            <mxPoint x="360" y="300" as="sourcePoint" />
            <mxPoint x="300" y="215" as="targetPoint" />
          </mxGeometry>
        </mxCell>
        <mxCell id="NDK0I9O41cYQQ8gbc8DZ-29" value="60 / min" style="edgeLabel;html=1;align=center;verticalAlign=middle;resizable=0;points=[];fontSize=8;" parent="NDK0I9O41cYQQ8gbc8DZ-28" vertex="1" connectable="0">
          <mxGeometry x="0.0548" y="1" relative="1" as="geometry">
            <mxPoint y="-14" as="offset" />
          </mxGeometry>
        </mxCell>
        <mxCell id="NDK0I9O41cYQQ8gbc8DZ-49" value="&lt;b&gt;Power Usage: 9 MW&lt;/b&gt;&lt;div&gt;&lt;b&gt;&lt;br&gt;&lt;/b&gt;&lt;div&gt;- Miner (5 MW): 1 x 5 MW = 5 MW&lt;/div&gt;&lt;div&gt;- Smelter (4 MW): 1 x 4 MW = 4 MW&lt;/div&gt;&lt;/div&gt;" style="rounded=0;whiteSpace=wrap;html=1;align=left;verticalAlign=top;fillColor=#dae8fc;strokeColor=#6c8ebf;fontSize=8;" parent="1" vertex="1">
          <mxGeometry x="330" y="180" width="140" height="50" as="geometry" />
        </mxCell>
        <mxCell id="NDK0I9O41cYQQ8gbc8DZ-50" value="&lt;b&gt;Power Usage: 8 MW&lt;/b&gt;&lt;div&gt;&lt;b&gt;&lt;br&gt;&lt;/b&gt;&lt;div&gt;- Constructor (4 MW): 2 x 4 MW = 8 MW&lt;/div&gt;&lt;/div&gt;" style="rounded=0;whiteSpace=wrap;html=1;align=left;verticalAlign=top;fillColor=#dae8fc;strokeColor=#6c8ebf;fontSize=8;" parent="1" vertex="1">
          <mxGeometry x="820" y="180" width="160" height="50" as="geometry" />
        </mxCell>
        <mxCell id="NDK0I9O41cYQQ8gbc8DZ-51" value="" style="endArrow=classic;html=1;rounded=0;exitX=1;exitY=0.5;exitDx=0;exitDy=0;" parent="1" source="NDK0I9O41cYQQ8gbc8DZ-6" edge="1">
          <mxGeometry width="50" height="50" relative="1" as="geometry">
            <mxPoint x="1000" y="304.65999999999997" as="sourcePoint" />
            <mxPoint x="1040" y="305" as="targetPoint" />
          </mxGeometry>
        </mxCell>
        <mxCell id="NDK0I9O41cYQQ8gbc8DZ-52" value="&lt;div&gt;Iron Rod&lt;/div&gt;(30 / min)" style="edgeLabel;html=1;align=center;verticalAlign=middle;resizable=0;points=[];fontSize=8;" parent="NDK0I9O41cYQQ8gbc8DZ-51" vertex="1" connectable="0">
          <mxGeometry x="0.0548" y="1" relative="1" as="geometry">
            <mxPoint x="-12" y="-14" as="offset" />
          </mxGeometry>
        </mxCell>
        <mxCell id="NDK0I9O41cYQQ8gbc8DZ-57" value="Foundations: 8 m x 8 m&lt;div&gt;Constructors (w x l): 8 m x 10 m&lt;/div&gt;&lt;div&gt;Assembler (w x l): 10 m x 15 m&lt;/div&gt;&lt;div&gt;Conveyor Belt (w x l): 2 m x ? m&lt;/div&gt;&lt;div&gt;Conveyor Merger / Splitter (w x l): 4 m x 4 m&lt;/div&gt;" style="shape=note;whiteSpace=wrap;html=1;backgroundOutline=1;darkOpacity=0.05;size=14;align=left;" parent="1" vertex="1">
          <mxGeometry x="90" y="440" width="270" height="130" as="geometry" />
        </mxCell>
        <mxCell id="NDK0I9O41cYQQ8gbc8DZ-131" value="" style="endArrow=classic;html=1;rounded=0;" parent="1" edge="1">
          <mxGeometry width="50" height="50" relative="1" as="geometry">
            <mxPoint x="100" y="640" as="sourcePoint" />
            <mxPoint x="130" y="640" as="targetPoint" />
          </mxGeometry>
        </mxCell>
        <mxCell id="NDK0I9O41cYQQ8gbc8DZ-132" value="Conveyor Belt Mk. 1: 60 / min" style="text;html=1;align=left;verticalAlign=middle;whiteSpace=wrap;rounded=0;" parent="1" vertex="1">
          <mxGeometry x="140" y="630" width="180" height="20" as="geometry" />
        </mxCell>
        <mxCell id="NDK0I9O41cYQQ8gbc8DZ-133" value="" style="endArrow=classic;html=1;rounded=0;strokeColor=#FF0000;" parent="1" edge="1">
          <mxGeometry width="50" height="50" relative="1" as="geometry">
            <mxPoint x="100" y="660" as="sourcePoint" />
            <mxPoint x="130" y="660" as="targetPoint" />
          </mxGeometry>
        </mxCell>
        <mxCell id="NDK0I9O41cYQQ8gbc8DZ-134" value="Conveyor Belt Mk. 2: 120 / min" style="text;html=1;align=left;verticalAlign=middle;whiteSpace=wrap;rounded=0;" parent="1" vertex="1">
          <mxGeometry x="140" y="650" width="180" height="20" as="geometry" />
        </mxCell>
        <mxCell id="NDK0I9O41cYQQ8gbc8DZ-67" value="Foundations" parent="0" />
        <mxCell id="NDK0I9O41cYQQ8gbc8DZ-69" value="" style="whiteSpace=wrap;html=1;aspect=fixed;strokeColor=#808080;fillColor=#CCE5FF;" parent="NDK0I9O41cYQQ8gbc8DZ-67" vertex="1">
          <mxGeometry x="400" y="440" width="80" height="80" as="geometry" />
        </mxCell>
        <mxCell id="NDK0I9O41cYQQ8gbc8DZ-70" value="" style="whiteSpace=wrap;html=1;aspect=fixed;strokeColor=#808080;fillColor=#CCE5FF;" parent="NDK0I9O41cYQQ8gbc8DZ-67" vertex="1">
          <mxGeometry x="480" y="440" width="80" height="80" as="geometry" />
        </mxCell>
        <mxCell id="NDK0I9O41cYQQ8gbc8DZ-71" value="" style="whiteSpace=wrap;html=1;aspect=fixed;strokeColor=#808080;fillColor=#CCE5FF;" parent="NDK0I9O41cYQQ8gbc8DZ-67" vertex="1">
          <mxGeometry x="400" y="520" width="80" height="80" as="geometry" />
        </mxCell>
        <mxCell id="NDK0I9O41cYQQ8gbc8DZ-72" value="" style="whiteSpace=wrap;html=1;aspect=fixed;strokeColor=#808080;fillColor=#CCE5FF;" parent="NDK0I9O41cYQQ8gbc8DZ-67" vertex="1">
          <mxGeometry x="480" y="520" width="80" height="80" as="geometry" />
        </mxCell>
        <mxCell id="NDK0I9O41cYQQ8gbc8DZ-79" value="" style="whiteSpace=wrap;html=1;aspect=fixed;strokeColor=#808080;fillColor=#CCE5FF;" parent="NDK0I9O41cYQQ8gbc8DZ-67" vertex="1">
          <mxGeometry x="840" y="550" width="80" height="80" as="geometry" />
        </mxCell>
        <mxCell id="NDK0I9O41cYQQ8gbc8DZ-81" value="" style="whiteSpace=wrap;html=1;aspect=fixed;strokeColor=#808080;fillColor=#CCE5FF;" parent="NDK0I9O41cYQQ8gbc8DZ-67" vertex="1">
          <mxGeometry x="840" y="630" width="80" height="80" as="geometry" />
        </mxCell>
        <mxCell id="NDK0I9O41cYQQ8gbc8DZ-82" value="" style="whiteSpace=wrap;html=1;aspect=fixed;strokeColor=#808080;fillColor=#CCE5FF;" parent="NDK0I9O41cYQQ8gbc8DZ-67" vertex="1">
          <mxGeometry x="920" y="550" width="80" height="80" as="geometry" />
        </mxCell>
        <mxCell id="NDK0I9O41cYQQ8gbc8DZ-83" value="" style="whiteSpace=wrap;html=1;aspect=fixed;strokeColor=#808080;fillColor=#CCE5FF;" parent="NDK0I9O41cYQQ8gbc8DZ-67" vertex="1">
          <mxGeometry x="1000" y="550" width="80" height="80" as="geometry" />
        </mxCell>
        <mxCell id="NDK0I9O41cYQQ8gbc8DZ-84" value="" style="whiteSpace=wrap;html=1;aspect=fixed;strokeColor=#808080;fillColor=#CCE5FF;" parent="NDK0I9O41cYQQ8gbc8DZ-67" vertex="1">
          <mxGeometry x="920" y="630" width="80" height="80" as="geometry" />
        </mxCell>
        <mxCell id="NDK0I9O41cYQQ8gbc8DZ-85" value="" style="whiteSpace=wrap;html=1;aspect=fixed;strokeColor=#808080;fillColor=#CCE5FF;" parent="NDK0I9O41cYQQ8gbc8DZ-67" vertex="1">
          <mxGeometry x="1000" y="630" width="80" height="80" as="geometry" />
        </mxCell>
        <mxCell id="NDK0I9O41cYQQ8gbc8DZ-86" value="" style="whiteSpace=wrap;html=1;aspect=fixed;strokeColor=#808080;fillColor=#CCE5FF;" parent="NDK0I9O41cYQQ8gbc8DZ-67" vertex="1">
          <mxGeometry x="1080" y="550" width="80" height="80" as="geometry" />
        </mxCell>
        <mxCell id="NDK0I9O41cYQQ8gbc8DZ-87" value="" style="whiteSpace=wrap;html=1;aspect=fixed;strokeColor=#808080;fillColor=#CCE5FF;" parent="NDK0I9O41cYQQ8gbc8DZ-67" vertex="1">
          <mxGeometry x="1080" y="630" width="80" height="80" as="geometry" />
        </mxCell>
        <mxCell id="NDK0I9O41cYQQ8gbc8DZ-89" value="" style="whiteSpace=wrap;html=1;aspect=fixed;strokeColor=#808080;fillColor=#CCE5FF;" parent="NDK0I9O41cYQQ8gbc8DZ-67" vertex="1">
          <mxGeometry x="840" y="470" width="80" height="80" as="geometry" />
        </mxCell>
        <mxCell id="NDK0I9O41cYQQ8gbc8DZ-90" value="" style="whiteSpace=wrap;html=1;aspect=fixed;strokeColor=#808080;fillColor=#CCE5FF;" parent="NDK0I9O41cYQQ8gbc8DZ-67" vertex="1">
          <mxGeometry x="920" y="470" width="80" height="80" as="geometry" />
        </mxCell>
        <mxCell id="NDK0I9O41cYQQ8gbc8DZ-91" value="" style="whiteSpace=wrap;html=1;aspect=fixed;strokeColor=#808080;fillColor=#CCE5FF;" parent="NDK0I9O41cYQQ8gbc8DZ-67" vertex="1">
          <mxGeometry x="1000" y="470" width="80" height="80" as="geometry" />
        </mxCell>
        <mxCell id="NDK0I9O41cYQQ8gbc8DZ-92" value="" style="whiteSpace=wrap;html=1;aspect=fixed;strokeColor=#808080;fillColor=#CCE5FF;" parent="NDK0I9O41cYQQ8gbc8DZ-67" vertex="1">
          <mxGeometry x="1080" y="470" width="80" height="80" as="geometry" />
        </mxCell>
        <mxCell id="NDK0I9O41cYQQ8gbc8DZ-109" value="Iron Rod Production" style="text;html=1;align=left;verticalAlign=middle;whiteSpace=wrap;rounded=0;fontStyle=1" parent="NDK0I9O41cYQQ8gbc8DZ-67" vertex="1">
          <mxGeometry x="840" y="440" width="160" height="30" as="geometry" />
        </mxCell>
        <mxCell id="NDK0I9O41cYQQ8gbc8DZ-68" value="Parts" parent="0" />
        <mxCell id="NDK0I9O41cYQQ8gbc8DZ-73" value="&lt;b&gt;Constructor&lt;/b&gt;&lt;div&gt;(w x l)&lt;/div&gt;&lt;div&gt;8 m x 10 m&lt;/div&gt;" style="rounded=0;whiteSpace=wrap;html=1;fillColor=#e1d5e7;strokeColor=#9673a6;fontSize=6;" parent="NDK0I9O41cYQQ8gbc8DZ-68" vertex="1">
          <mxGeometry x="600" y="440" width="100" height="80" as="geometry" />
        </mxCell>
        <mxCell id="NDK0I9O41cYQQ8gbc8DZ-74" value="&lt;b&gt;Merger&lt;/b&gt;&lt;div&gt;(w x l)&lt;/div&gt;&lt;div&gt;8 m x 10 m&lt;/div&gt;" style="rounded=0;whiteSpace=wrap;html=1;fillColor=#ffe6cc;strokeColor=#d79b00;fontSize=6;" parent="NDK0I9O41cYQQ8gbc8DZ-68" vertex="1">
          <mxGeometry x="600" y="530" width="40" height="40" as="geometry" />
        </mxCell>
        <mxCell id="NDK0I9O41cYQQ8gbc8DZ-75" value="&lt;b&gt;Splitter&lt;/b&gt;&lt;div&gt;(w x l)&lt;/div&gt;&lt;div&gt;8 m x 10 m&lt;/div&gt;" style="rounded=0;whiteSpace=wrap;html=1;fillColor=#ffe6cc;strokeColor=#d79b00;fontSize=6;" parent="NDK0I9O41cYQQ8gbc8DZ-68" vertex="1">
          <mxGeometry x="650" y="530" width="40" height="40" as="geometry" />
        </mxCell>
        <mxCell id="NDK0I9O41cYQQ8gbc8DZ-76" value="" style="rounded=0;whiteSpace=wrap;html=1;fillColor=#f5f5f5;strokeColor=#666666;fontSize=6;fontColor=#333333;" parent="NDK0I9O41cYQQ8gbc8DZ-68" vertex="1">
          <mxGeometry x="600" y="580" width="10" height="20" as="geometry" />
        </mxCell>
        <mxCell id="NDK0I9O41cYQQ8gbc8DZ-77" value="&lt;b&gt;Assembler&lt;/b&gt;&lt;div&gt;&lt;span style=&quot;background-color: transparent; color: light-dark(rgb(0, 0, 0), rgb(255, 255, 255));&quot;&gt;(w x l)&lt;/span&gt;&lt;div&gt;10 m x 15 m&lt;/div&gt;&lt;/div&gt;" style="rounded=0;whiteSpace=wrap;html=1;fillColor=#d5e8d4;strokeColor=#82b366;fontSize=6;" parent="NDK0I9O41cYQQ8gbc8DZ-68" vertex="1">
          <mxGeometry x="600" y="610" width="150" height="100" as="geometry" />
        </mxCell>
        <mxCell id="NDK0I9O41cYQQ8gbc8DZ-112" value="" style="rounded=0;whiteSpace=wrap;html=1;fillColor=#f5f5f5;strokeColor=#666666;fontSize=6;fontColor=#333333;" parent="NDK0I9O41cYQQ8gbc8DZ-68" vertex="1">
          <mxGeometry x="800" y="520" width="60" height="20" as="geometry" />
        </mxCell>
        <mxCell id="NDK0I9O41cYQQ8gbc8DZ-113" value="&lt;b&gt;Splitter&lt;/b&gt;&lt;div&gt;(w x l)&lt;/div&gt;&lt;div&gt;8 m x 10 m&lt;/div&gt;" style="rounded=0;whiteSpace=wrap;html=1;fillColor=#ffe6cc;strokeColor=#d79b00;fontSize=6;" parent="NDK0I9O41cYQQ8gbc8DZ-68" vertex="1">
          <mxGeometry x="860" y="610" width="40" height="40" as="geometry" />
        </mxCell>
        <mxCell id="NDK0I9O41cYQQ8gbc8DZ-114" value="" style="rounded=0;whiteSpace=wrap;html=1;fillColor=#f5f5f5;strokeColor=#666666;fontSize=6;fontColor=#333333;" parent="NDK0I9O41cYQQ8gbc8DZ-68" vertex="1">
          <mxGeometry x="900" y="620" width="50" height="20" as="geometry" />
        </mxCell>
        <mxCell id="NDK0I9O41cYQQ8gbc8DZ-115" value="&lt;b&gt;Constructor&lt;/b&gt;&lt;div&gt;(w x l)&lt;/div&gt;&lt;div&gt;8 m x 10 m&lt;/div&gt;" style="rounded=0;whiteSpace=wrap;html=1;fillColor=#e1d5e7;strokeColor=#9673a6;fontSize=6;" parent="NDK0I9O41cYQQ8gbc8DZ-68" vertex="1">
          <mxGeometry x="950" y="590" width="100" height="80" as="geometry" />
        </mxCell>
        <mxCell id="NDK0I9O41cYQQ8gbc8DZ-116" value="" style="rounded=0;whiteSpace=wrap;html=1;fillColor=#f5f5f5;strokeColor=#666666;fontSize=6;fontColor=#333333;" parent="NDK0I9O41cYQQ8gbc8DZ-68" vertex="1">
          <mxGeometry x="1050" y="620" width="50" height="20" as="geometry" />
        </mxCell>
        <mxCell id="NDK0I9O41cYQQ8gbc8DZ-117" value="" style="rounded=0;whiteSpace=wrap;html=1;fillColor=#f5f5f5;strokeColor=#666666;fontSize=6;fontColor=#333333;" parent="NDK0I9O41cYQQ8gbc8DZ-68" vertex="1">
          <mxGeometry x="1110" y="550" width="20" height="60" as="geometry" />
        </mxCell>
        <mxCell id="NDK0I9O41cYQQ8gbc8DZ-118" value="&lt;b&gt;Merger&lt;/b&gt;&lt;div&gt;(w x l)&lt;/div&gt;&lt;div&gt;8 m x 10 m&lt;/div&gt;" style="rounded=0;whiteSpace=wrap;html=1;fillColor=#ffe6cc;strokeColor=#d79b00;fontSize=6;" parent="NDK0I9O41cYQQ8gbc8DZ-68" vertex="1">
          <mxGeometry x="1100" y="610" width="40" height="40" as="geometry" />
        </mxCell>
        <mxCell id="NDK0I9O41cYQQ8gbc8DZ-119" value="" style="rounded=0;whiteSpace=wrap;html=1;fillColor=#f5f5f5;strokeColor=#666666;fontSize=6;fontColor=#333333;" parent="NDK0I9O41cYQQ8gbc8DZ-68" vertex="1">
          <mxGeometry x="870" y="550" width="20" height="60" as="geometry" />
        </mxCell>
        <mxCell id="NDK0I9O41cYQQ8gbc8DZ-120" value="&lt;b&gt;Splitter&lt;/b&gt;&lt;div&gt;(w x l)&lt;/div&gt;&lt;div&gt;8 m x 10 m&lt;/div&gt;" style="rounded=0;whiteSpace=wrap;html=1;fillColor=#ffe6cc;strokeColor=#d79b00;fontSize=6;" parent="NDK0I9O41cYQQ8gbc8DZ-68" vertex="1">
          <mxGeometry x="860" y="510" width="40" height="40" as="geometry" />
        </mxCell>
        <mxCell id="NDK0I9O41cYQQ8gbc8DZ-121" value="" style="rounded=0;whiteSpace=wrap;html=1;fillColor=#f5f5f5;strokeColor=#666666;fontSize=6;fontColor=#333333;" parent="NDK0I9O41cYQQ8gbc8DZ-68" vertex="1">
          <mxGeometry x="900" y="520" width="50" height="20" as="geometry" />
        </mxCell>
        <mxCell id="NDK0I9O41cYQQ8gbc8DZ-122" value="&lt;b&gt;Constructor&lt;/b&gt;&lt;div&gt;(w x l)&lt;/div&gt;&lt;div&gt;8 m x 10 m&lt;/div&gt;" style="rounded=0;whiteSpace=wrap;html=1;fillColor=#e1d5e7;strokeColor=#9673a6;fontSize=6;" parent="NDK0I9O41cYQQ8gbc8DZ-68" vertex="1">
          <mxGeometry x="950" y="490" width="100" height="80" as="geometry" />
        </mxCell>
        <mxCell id="NDK0I9O41cYQQ8gbc8DZ-123" value="&lt;b&gt;Merger&lt;/b&gt;&lt;div&gt;(w x l)&lt;/div&gt;&lt;div&gt;8 m x 10 m&lt;/div&gt;" style="rounded=0;whiteSpace=wrap;html=1;fillColor=#ffe6cc;strokeColor=#d79b00;fontSize=6;" parent="NDK0I9O41cYQQ8gbc8DZ-68" vertex="1">
          <mxGeometry x="1100" y="510" width="40" height="40" as="geometry" />
        </mxCell>
        <mxCell id="NDK0I9O41cYQQ8gbc8DZ-124" value="" style="rounded=0;whiteSpace=wrap;html=1;fillColor=#f5f5f5;strokeColor=#666666;fontSize=6;fontColor=#333333;" parent="NDK0I9O41cYQQ8gbc8DZ-68" vertex="1">
          <mxGeometry x="1050" y="520" width="50" height="20" as="geometry" />
        </mxCell>
        <mxCell id="NDK0I9O41cYQQ8gbc8DZ-125" value="" style="rounded=0;whiteSpace=wrap;html=1;fillColor=#f5f5f5;strokeColor=#666666;fontSize=6;fontColor=#333333;" parent="NDK0I9O41cYQQ8gbc8DZ-68" vertex="1">
          <mxGeometry x="1140" y="520" width="60" height="20" as="geometry" />
        </mxCell>
      </root>
    </mxGraphModel>
  </diagram>
  <diagram name="Iron Plate" id="46VRdMlQKkZ_c2nIUXkS">
    <mxGraphModel dx="2377" dy="1201" grid="1" gridSize="10" guides="1" tooltips="1" connect="1" arrows="1" fold="1" page="1" pageScale="1" pageWidth="827" pageHeight="1169" math="0" shadow="0">
      <root>
        <mxCell id="oCfeEF-_Yt_aaLkqjBKR-0" />
        <mxCell id="oCfeEF-_Yt_aaLkqjBKR-1" parent="oCfeEF-_Yt_aaLkqjBKR-0" />
        <mxCell id="oCfeEF-_Yt_aaLkqjBKR-2" value="Iron Plate Production" style="rounded=0;whiteSpace=wrap;html=1;dashed=1;dashPattern=8 8;fillColor=#f5f5f5;fontColor=#333333;strokeColor=#666666;align=right;verticalAlign=bottom;fontStyle=1" parent="oCfeEF-_Yt_aaLkqjBKR-1" vertex="1">
          <mxGeometry x="650" y="170" width="470" height="240" as="geometry" />
        </mxCell>
        <mxCell id="oCfeEF-_Yt_aaLkqjBKR-3" value="Iron Ingot Production" style="rounded=0;whiteSpace=wrap;html=1;dashed=1;dashPattern=8 8;fillColor=#f5f5f5;fontColor=#333333;strokeColor=#666666;align=right;verticalAlign=bottom;fontStyle=1" parent="oCfeEF-_Yt_aaLkqjBKR-1" vertex="1">
          <mxGeometry x="90" y="170" width="520" height="240" as="geometry" />
        </mxCell>
        <mxCell id="oCfeEF-_Yt_aaLkqjBKR-4" value="«Constructor»&lt;br&gt;&lt;b&gt;Iron Plate&lt;/b&gt;" style="html=1;whiteSpace=wrap;" parent="oCfeEF-_Yt_aaLkqjBKR-1" vertex="1">
          <mxGeometry x="830" y="280" width="110" height="50" as="geometry" />
        </mxCell>
        <mxCell id="oCfeEF-_Yt_aaLkqjBKR-5" value="" style="endArrow=classic;html=1;rounded=0;exitX=1;exitY=0.5;exitDx=0;exitDy=0;" parent="oCfeEF-_Yt_aaLkqjBKR-1" source="oCfeEF-_Yt_aaLkqjBKR-4" edge="1">
          <mxGeometry width="50" height="50" relative="1" as="geometry">
            <mxPoint x="940" y="304.76" as="sourcePoint" />
            <mxPoint x="1020" y="305" as="targetPoint" />
          </mxGeometry>
        </mxCell>
        <mxCell id="oCfeEF-_Yt_aaLkqjBKR-6" value="&lt;div&gt;Iron Plate&lt;/div&gt;(20 / min)" style="edgeLabel;html=1;align=center;verticalAlign=middle;resizable=0;points=[];fontSize=8;" parent="oCfeEF-_Yt_aaLkqjBKR-5" vertex="1" connectable="0">
          <mxGeometry x="-0.0519" y="-2" relative="1" as="geometry">
            <mxPoint x="-7" y="-17" as="offset" />
          </mxGeometry>
        </mxCell>
        <mxCell id="oCfeEF-_Yt_aaLkqjBKR-7" value="Merge" style="rhombus;whiteSpace=wrap;html=1;" parent="oCfeEF-_Yt_aaLkqjBKR-1" vertex="1">
          <mxGeometry x="1020" y="265" width="80" height="80" as="geometry" />
        </mxCell>
        <mxCell id="oCfeEF-_Yt_aaLkqjBKR-8" value="«Constructor»&lt;br&gt;&lt;b&gt;Iron Plate&lt;/b&gt;" style="html=1;whiteSpace=wrap;" parent="oCfeEF-_Yt_aaLkqjBKR-1" vertex="1">
          <mxGeometry x="830" y="340" width="110" height="50" as="geometry" />
        </mxCell>
        <mxCell id="oCfeEF-_Yt_aaLkqjBKR-9" value="" style="endArrow=classic;html=1;rounded=0;exitX=1;exitY=0.5;exitDx=0;exitDy=0;entryX=0;entryY=0.5;entryDx=0;entryDy=0;edgeStyle=orthogonalEdgeStyle;" parent="oCfeEF-_Yt_aaLkqjBKR-1" source="oCfeEF-_Yt_aaLkqjBKR-8" target="oCfeEF-_Yt_aaLkqjBKR-7" edge="1">
          <mxGeometry width="50" height="50" relative="1" as="geometry">
            <mxPoint x="1110" y="520" as="sourcePoint" />
            <mxPoint x="1187" y="520" as="targetPoint" />
            <Array as="points">
              <mxPoint x="1000" y="365" />
              <mxPoint x="1000" y="305" />
            </Array>
          </mxGeometry>
        </mxCell>
        <mxCell id="oCfeEF-_Yt_aaLkqjBKR-10" value="&lt;div&gt;Iron Plate&lt;/div&gt;(20 / min)" style="edgeLabel;html=1;align=center;verticalAlign=middle;resizable=0;points=[];fontSize=8;" parent="oCfeEF-_Yt_aaLkqjBKR-9" vertex="1" connectable="0">
          <mxGeometry x="-0.0519" y="-2" relative="1" as="geometry">
            <mxPoint x="-32" y="-9" as="offset" />
          </mxGeometry>
        </mxCell>
        <mxCell id="oCfeEF-_Yt_aaLkqjBKR-16" value="«Smelter»&lt;br&gt;&lt;b&gt;Iron Ingot&lt;/b&gt;" style="html=1;whiteSpace=wrap;" parent="oCfeEF-_Yt_aaLkqjBKR-1" vertex="1">
          <mxGeometry x="300" y="280" width="110" height="50" as="geometry" />
        </mxCell>
        <mxCell id="oCfeEF-_Yt_aaLkqjBKR-17" value="" style="endArrow=classic;html=1;rounded=0;exitX=1;exitY=0.5;exitDx=0;exitDy=0;entryX=0;entryY=0.5;entryDx=0;entryDy=0;" parent="oCfeEF-_Yt_aaLkqjBKR-1" source="QxyV9j4pM9IR3ZUf3yGF-11" target="QxyV9j4pM9IR3ZUf3yGF-3" edge="1">
          <mxGeometry width="50" height="50" relative="1" as="geometry">
            <mxPoint x="650" y="420" as="sourcePoint" />
            <mxPoint x="590" y="305" as="targetPoint" />
          </mxGeometry>
        </mxCell>
        <mxCell id="oCfeEF-_Yt_aaLkqjBKR-18" value="Iron Ingot&lt;div&gt;(60 / min)&lt;/div&gt;" style="edgeLabel;html=1;align=center;verticalAlign=middle;resizable=0;points=[];fontSize=8;" parent="oCfeEF-_Yt_aaLkqjBKR-17" vertex="1" connectable="0">
          <mxGeometry x="0.0548" y="1" relative="1" as="geometry">
            <mxPoint x="-12" y="-14" as="offset" />
          </mxGeometry>
        </mxCell>
        <mxCell id="oCfeEF-_Yt_aaLkqjBKR-19" value="«Miner Mk. 1»&lt;br&gt;&lt;b&gt;Impure&lt;/b&gt;" style="html=1;whiteSpace=wrap;" parent="oCfeEF-_Yt_aaLkqjBKR-1" vertex="1">
          <mxGeometry x="110" y="280" width="110" height="50" as="geometry" />
        </mxCell>
        <mxCell id="oCfeEF-_Yt_aaLkqjBKR-20" value="" style="endArrow=classic;html=1;rounded=0;exitX=1;exitY=0.5;exitDx=0;exitDy=0;entryX=0;entryY=0.5;entryDx=0;entryDy=0;" parent="oCfeEF-_Yt_aaLkqjBKR-1" source="oCfeEF-_Yt_aaLkqjBKR-19" target="oCfeEF-_Yt_aaLkqjBKR-16" edge="1">
          <mxGeometry width="50" height="50" relative="1" as="geometry">
            <mxPoint x="500" y="480" as="sourcePoint" />
            <mxPoint x="580" y="480" as="targetPoint" />
          </mxGeometry>
        </mxCell>
        <mxCell id="oCfeEF-_Yt_aaLkqjBKR-21" value="Iron Ore&lt;div&gt;(30 / min)&lt;/div&gt;" style="edgeLabel;html=1;align=center;verticalAlign=middle;resizable=0;points=[];fontSize=8;" parent="oCfeEF-_Yt_aaLkqjBKR-20" vertex="1" connectable="0">
          <mxGeometry x="0.0548" y="1" relative="1" as="geometry">
            <mxPoint y="-14" as="offset" />
          </mxGeometry>
        </mxCell>
        <mxCell id="oCfeEF-_Yt_aaLkqjBKR-22" value="«Miner Mk. 1»&lt;br&gt;&lt;b&gt;Normal&lt;/b&gt;" style="html=1;whiteSpace=wrap;" parent="oCfeEF-_Yt_aaLkqjBKR-1" vertex="1">
          <mxGeometry x="110" y="190" width="110" height="50" as="geometry" />
        </mxCell>
        <mxCell id="oCfeEF-_Yt_aaLkqjBKR-23" value="" style="endArrow=classic;html=1;rounded=0;exitX=1;exitY=0.5;exitDx=0;exitDy=0;fontSize=8;" parent="oCfeEF-_Yt_aaLkqjBKR-1" source="oCfeEF-_Yt_aaLkqjBKR-22" edge="1">
          <mxGeometry width="50" height="50" relative="1" as="geometry">
            <mxPoint x="360" y="300" as="sourcePoint" />
            <mxPoint x="300" y="215" as="targetPoint" />
          </mxGeometry>
        </mxCell>
        <mxCell id="oCfeEF-_Yt_aaLkqjBKR-24" value="60 / min" style="edgeLabel;html=1;align=center;verticalAlign=middle;resizable=0;points=[];fontSize=8;" parent="oCfeEF-_Yt_aaLkqjBKR-23" vertex="1" connectable="0">
          <mxGeometry x="0.0548" y="1" relative="1" as="geometry">
            <mxPoint y="-14" as="offset" />
          </mxGeometry>
        </mxCell>
        <mxCell id="oCfeEF-_Yt_aaLkqjBKR-25" value="&lt;b&gt;Power Usage: 18 MW&lt;/b&gt;&lt;div&gt;&lt;b&gt;&lt;br&gt;&lt;/b&gt;&lt;div&gt;- Miner (5 MW): 2 x 5 MW = 10 MW&lt;/div&gt;&lt;div&gt;- Smelter (4 MW): 2 x 4 MW = 8 MW&lt;/div&gt;&lt;/div&gt;" style="rounded=0;whiteSpace=wrap;html=1;align=left;verticalAlign=top;fillColor=#dae8fc;strokeColor=#6c8ebf;fontSize=8;" parent="oCfeEF-_Yt_aaLkqjBKR-1" vertex="1">
          <mxGeometry x="460" y="180" width="140" height="50" as="geometry" />
        </mxCell>
        <mxCell id="oCfeEF-_Yt_aaLkqjBKR-26" value="&lt;b&gt;Power Usage: 8 MW&lt;/b&gt;&lt;div&gt;&lt;b&gt;&lt;br&gt;&lt;/b&gt;&lt;div&gt;- Constructor (4 MW): 2 x 4 MW = 8 MW&lt;/div&gt;&lt;/div&gt;" style="rounded=0;whiteSpace=wrap;html=1;align=left;verticalAlign=top;fillColor=#dae8fc;strokeColor=#6c8ebf;fontSize=8;" parent="oCfeEF-_Yt_aaLkqjBKR-1" vertex="1">
          <mxGeometry x="950" y="180" width="160" height="50" as="geometry" />
        </mxCell>
        <mxCell id="oCfeEF-_Yt_aaLkqjBKR-27" value="" style="endArrow=classic;html=1;rounded=0;exitX=1;exitY=0.5;exitDx=0;exitDy=0;" parent="oCfeEF-_Yt_aaLkqjBKR-1" source="oCfeEF-_Yt_aaLkqjBKR-7" edge="1">
          <mxGeometry width="50" height="50" relative="1" as="geometry">
            <mxPoint x="1130" y="304.65999999999997" as="sourcePoint" />
            <mxPoint x="1170" y="305" as="targetPoint" />
          </mxGeometry>
        </mxCell>
        <mxCell id="oCfeEF-_Yt_aaLkqjBKR-28" value="&lt;div&gt;Iron Plate&lt;/div&gt;(40 / min)" style="edgeLabel;html=1;align=center;verticalAlign=middle;resizable=0;points=[];fontSize=8;" parent="oCfeEF-_Yt_aaLkqjBKR-27" vertex="1" connectable="0">
          <mxGeometry x="0.0548" y="1" relative="1" as="geometry">
            <mxPoint x="-12" y="-14" as="offset" />
          </mxGeometry>
        </mxCell>
        <mxCell id="oCfeEF-_Yt_aaLkqjBKR-29" value="Foundations: 8 m x 8 m&lt;div&gt;Constructors (w x l): 8 m x 10 m&lt;/div&gt;&lt;div&gt;Assembler (w x l): 10 m x 15 m&lt;/div&gt;&lt;div&gt;Conveyor Belt (w x l): 2 m x ? m&lt;/div&gt;&lt;div&gt;Conveyor Merger / Splitter (w x l): 4 m x 4 m&lt;/div&gt;" style="shape=note;whiteSpace=wrap;html=1;backgroundOutline=1;darkOpacity=0.05;size=14;align=left;" parent="oCfeEF-_Yt_aaLkqjBKR-1" vertex="1">
          <mxGeometry x="90" y="520" width="270" height="130" as="geometry" />
        </mxCell>
        <mxCell id="oCfeEF-_Yt_aaLkqjBKR-30" value="" style="endArrow=classic;html=1;rounded=0;" parent="oCfeEF-_Yt_aaLkqjBKR-1" edge="1">
          <mxGeometry width="50" height="50" relative="1" as="geometry">
            <mxPoint x="100" y="720" as="sourcePoint" />
            <mxPoint x="130" y="720" as="targetPoint" />
          </mxGeometry>
        </mxCell>
        <mxCell id="oCfeEF-_Yt_aaLkqjBKR-31" value="Conveyor Belt Mk. 1: 60 / min" style="text;html=1;align=left;verticalAlign=middle;whiteSpace=wrap;rounded=0;" parent="oCfeEF-_Yt_aaLkqjBKR-1" vertex="1">
          <mxGeometry x="140" y="710" width="180" height="20" as="geometry" />
        </mxCell>
        <mxCell id="oCfeEF-_Yt_aaLkqjBKR-32" value="" style="endArrow=classic;html=1;rounded=0;strokeColor=#FF0000;" parent="oCfeEF-_Yt_aaLkqjBKR-1" edge="1">
          <mxGeometry width="50" height="50" relative="1" as="geometry">
            <mxPoint x="100" y="740" as="sourcePoint" />
            <mxPoint x="130" y="740" as="targetPoint" />
          </mxGeometry>
        </mxCell>
        <mxCell id="oCfeEF-_Yt_aaLkqjBKR-33" value="Conveyor Belt Mk. 2: 120 / min" style="text;html=1;align=left;verticalAlign=middle;whiteSpace=wrap;rounded=0;" parent="oCfeEF-_Yt_aaLkqjBKR-1" vertex="1">
          <mxGeometry x="140" y="730" width="180" height="20" as="geometry" />
        </mxCell>
        <mxCell id="QxyV9j4pM9IR3ZUf3yGF-3" value="Split" style="rhombus;whiteSpace=wrap;html=1;" parent="oCfeEF-_Yt_aaLkqjBKR-1" vertex="1">
          <mxGeometry x="670" y="265" width="80" height="80" as="geometry" />
        </mxCell>
        <mxCell id="QxyV9j4pM9IR3ZUf3yGF-7" value="«Smelter»&lt;br&gt;&lt;b&gt;Iron Ingot&lt;/b&gt;" style="html=1;whiteSpace=wrap;" parent="oCfeEF-_Yt_aaLkqjBKR-1" vertex="1">
          <mxGeometry x="300" y="340" width="110" height="50" as="geometry" />
        </mxCell>
        <mxCell id="QxyV9j4pM9IR3ZUf3yGF-8" value="«Miner Mk. 1»&lt;br&gt;&lt;b&gt;Impure&lt;/b&gt;" style="html=1;whiteSpace=wrap;" parent="oCfeEF-_Yt_aaLkqjBKR-1" vertex="1">
          <mxGeometry x="110" y="340" width="110" height="50" as="geometry" />
        </mxCell>
        <mxCell id="QxyV9j4pM9IR3ZUf3yGF-9" value="" style="endArrow=classic;html=1;rounded=0;exitX=1;exitY=0.5;exitDx=0;exitDy=0;entryX=0;entryY=0.5;entryDx=0;entryDy=0;" parent="oCfeEF-_Yt_aaLkqjBKR-1" source="QxyV9j4pM9IR3ZUf3yGF-8" target="QxyV9j4pM9IR3ZUf3yGF-7" edge="1">
          <mxGeometry width="50" height="50" relative="1" as="geometry">
            <mxPoint x="500" y="540" as="sourcePoint" />
            <mxPoint x="580" y="540" as="targetPoint" />
          </mxGeometry>
        </mxCell>
        <mxCell id="QxyV9j4pM9IR3ZUf3yGF-10" value="Iron Ore&lt;div&gt;(30 / min)&lt;/div&gt;" style="edgeLabel;html=1;align=center;verticalAlign=middle;resizable=0;points=[];fontSize=8;" parent="QxyV9j4pM9IR3ZUf3yGF-9" vertex="1" connectable="0">
          <mxGeometry x="0.0548" y="1" relative="1" as="geometry">
            <mxPoint y="-14" as="offset" />
          </mxGeometry>
        </mxCell>
        <mxCell id="QxyV9j4pM9IR3ZUf3yGF-11" value="Merge" style="rhombus;whiteSpace=wrap;html=1;" parent="oCfeEF-_Yt_aaLkqjBKR-1" vertex="1">
          <mxGeometry x="510" y="265" width="80" height="80" as="geometry" />
        </mxCell>
        <mxCell id="QxyV9j4pM9IR3ZUf3yGF-12" value="" style="endArrow=classic;html=1;rounded=0;exitX=1;exitY=0.5;exitDx=0;exitDy=0;entryX=0;entryY=0.5;entryDx=0;entryDy=0;" parent="oCfeEF-_Yt_aaLkqjBKR-1" source="oCfeEF-_Yt_aaLkqjBKR-16" target="QxyV9j4pM9IR3ZUf3yGF-11" edge="1">
          <mxGeometry width="50" height="50" relative="1" as="geometry">
            <mxPoint x="300" y="310" as="sourcePoint" />
            <mxPoint x="380" y="310" as="targetPoint" />
          </mxGeometry>
        </mxCell>
        <mxCell id="QxyV9j4pM9IR3ZUf3yGF-13" value="Iron Ingot&lt;div&gt;(30 / min)&lt;/div&gt;" style="edgeLabel;html=1;align=center;verticalAlign=middle;resizable=0;points=[];fontSize=8;" parent="QxyV9j4pM9IR3ZUf3yGF-12" vertex="1" connectable="0">
          <mxGeometry x="0.0548" y="1" relative="1" as="geometry">
            <mxPoint y="-14" as="offset" />
          </mxGeometry>
        </mxCell>
        <mxCell id="QxyV9j4pM9IR3ZUf3yGF-14" value="" style="endArrow=classic;html=1;rounded=0;exitX=1;exitY=0.5;exitDx=0;exitDy=0;entryX=0;entryY=0.5;entryDx=0;entryDy=0;edgeStyle=orthogonalEdgeStyle;" parent="oCfeEF-_Yt_aaLkqjBKR-1" source="QxyV9j4pM9IR3ZUf3yGF-7" target="QxyV9j4pM9IR3ZUf3yGF-11" edge="1">
          <mxGeometry width="50" height="50" relative="1" as="geometry">
            <mxPoint x="530" y="410" as="sourcePoint" />
            <mxPoint x="630" y="410" as="targetPoint" />
            <Array as="points">
              <mxPoint x="490" y="365" />
              <mxPoint x="490" y="305" />
            </Array>
          </mxGeometry>
        </mxCell>
        <mxCell id="QxyV9j4pM9IR3ZUf3yGF-15" value="Iron Ingot&lt;div&gt;(30 / min)&lt;/div&gt;" style="edgeLabel;html=1;align=center;verticalAlign=middle;resizable=0;points=[];fontSize=8;" parent="QxyV9j4pM9IR3ZUf3yGF-14" vertex="1" connectable="0">
          <mxGeometry x="0.0548" y="1" relative="1" as="geometry">
            <mxPoint x="-29" y="-16" as="offset" />
          </mxGeometry>
        </mxCell>
        <mxCell id="DAOdcdSYH3raiNXvsSJI-6" value="" style="endArrow=classic;html=1;rounded=0;exitX=1;exitY=0.5;exitDx=0;exitDy=0;entryX=0;entryY=0.5;entryDx=0;entryDy=0;" parent="oCfeEF-_Yt_aaLkqjBKR-1" edge="1">
          <mxGeometry width="50" height="50" relative="1" as="geometry">
            <mxPoint x="750" y="305" as="sourcePoint" />
            <mxPoint x="830" y="305" as="targetPoint" />
          </mxGeometry>
        </mxCell>
        <mxCell id="DAOdcdSYH3raiNXvsSJI-7" value="Iron Ingot&lt;div&gt;(30 / min)&lt;/div&gt;" style="edgeLabel;html=1;align=center;verticalAlign=middle;resizable=0;points=[];fontSize=8;" parent="DAOdcdSYH3raiNXvsSJI-6" vertex="1" connectable="0">
          <mxGeometry x="0.0548" y="1" relative="1" as="geometry">
            <mxPoint x="-2" y="-14" as="offset" />
          </mxGeometry>
        </mxCell>
        <mxCell id="DAOdcdSYH3raiNXvsSJI-8" value="" style="endArrow=classic;html=1;rounded=0;exitX=1;exitY=0.5;exitDx=0;exitDy=0;entryX=0;entryY=0.5;entryDx=0;entryDy=0;edgeStyle=orthogonalEdgeStyle;" parent="oCfeEF-_Yt_aaLkqjBKR-1" edge="1">
          <mxGeometry width="50" height="50" relative="1" as="geometry">
            <mxPoint x="750" y="305" as="sourcePoint" />
            <mxPoint x="830" y="365" as="targetPoint" />
            <Array as="points">
              <mxPoint x="760" y="305" />
              <mxPoint x="760" y="365" />
            </Array>
          </mxGeometry>
        </mxCell>
        <mxCell id="DAOdcdSYH3raiNXvsSJI-9" value="Iron Ingot&lt;div&gt;(30 / min)&lt;/div&gt;" style="edgeLabel;html=1;align=center;verticalAlign=middle;resizable=0;points=[];fontSize=8;" parent="DAOdcdSYH3raiNXvsSJI-8" vertex="1" connectable="0">
          <mxGeometry x="0.0548" y="1" relative="1" as="geometry">
            <mxPoint x="36" y="-14" as="offset" />
          </mxGeometry>
        </mxCell>
        <mxCell id="oCfeEF-_Yt_aaLkqjBKR-34" value="Foundations" parent="oCfeEF-_Yt_aaLkqjBKR-0" />
        <mxCell id="oCfeEF-_Yt_aaLkqjBKR-35" value="" style="whiteSpace=wrap;html=1;aspect=fixed;strokeColor=#808080;fillColor=#CCE5FF;" parent="oCfeEF-_Yt_aaLkqjBKR-34" vertex="1">
          <mxGeometry x="400" y="520" width="80" height="80" as="geometry" />
        </mxCell>
        <mxCell id="oCfeEF-_Yt_aaLkqjBKR-36" value="" style="whiteSpace=wrap;html=1;aspect=fixed;strokeColor=#808080;fillColor=#CCE5FF;" parent="oCfeEF-_Yt_aaLkqjBKR-34" vertex="1">
          <mxGeometry x="480" y="520" width="80" height="80" as="geometry" />
        </mxCell>
        <mxCell id="oCfeEF-_Yt_aaLkqjBKR-37" value="" style="whiteSpace=wrap;html=1;aspect=fixed;strokeColor=#808080;fillColor=#CCE5FF;" parent="oCfeEF-_Yt_aaLkqjBKR-34" vertex="1">
          <mxGeometry x="400" y="600" width="80" height="80" as="geometry" />
        </mxCell>
        <mxCell id="oCfeEF-_Yt_aaLkqjBKR-38" value="" style="whiteSpace=wrap;html=1;aspect=fixed;strokeColor=#808080;fillColor=#CCE5FF;" parent="oCfeEF-_Yt_aaLkqjBKR-34" vertex="1">
          <mxGeometry x="480" y="600" width="80" height="80" as="geometry" />
        </mxCell>
        <mxCell id="oCfeEF-_Yt_aaLkqjBKR-39" value="" style="whiteSpace=wrap;html=1;aspect=fixed;strokeColor=#808080;fillColor=#CCE5FF;" parent="oCfeEF-_Yt_aaLkqjBKR-34" vertex="1">
          <mxGeometry x="840" y="630" width="80" height="80" as="geometry" />
        </mxCell>
        <mxCell id="oCfeEF-_Yt_aaLkqjBKR-40" value="" style="whiteSpace=wrap;html=1;aspect=fixed;strokeColor=#808080;fillColor=#CCE5FF;" parent="oCfeEF-_Yt_aaLkqjBKR-34" vertex="1">
          <mxGeometry x="840" y="710" width="80" height="80" as="geometry" />
        </mxCell>
        <mxCell id="oCfeEF-_Yt_aaLkqjBKR-41" value="" style="whiteSpace=wrap;html=1;aspect=fixed;strokeColor=#808080;fillColor=#CCE5FF;" parent="oCfeEF-_Yt_aaLkqjBKR-34" vertex="1">
          <mxGeometry x="920" y="630" width="80" height="80" as="geometry" />
        </mxCell>
        <mxCell id="oCfeEF-_Yt_aaLkqjBKR-42" value="" style="whiteSpace=wrap;html=1;aspect=fixed;strokeColor=#808080;fillColor=#CCE5FF;" parent="oCfeEF-_Yt_aaLkqjBKR-34" vertex="1">
          <mxGeometry x="1000" y="630" width="80" height="80" as="geometry" />
        </mxCell>
        <mxCell id="oCfeEF-_Yt_aaLkqjBKR-43" value="" style="whiteSpace=wrap;html=1;aspect=fixed;strokeColor=#808080;fillColor=#CCE5FF;" parent="oCfeEF-_Yt_aaLkqjBKR-34" vertex="1">
          <mxGeometry x="920" y="710" width="80" height="80" as="geometry" />
        </mxCell>
        <mxCell id="oCfeEF-_Yt_aaLkqjBKR-44" value="" style="whiteSpace=wrap;html=1;aspect=fixed;strokeColor=#808080;fillColor=#CCE5FF;" parent="oCfeEF-_Yt_aaLkqjBKR-34" vertex="1">
          <mxGeometry x="1000" y="710" width="80" height="80" as="geometry" />
        </mxCell>
        <mxCell id="oCfeEF-_Yt_aaLkqjBKR-45" value="" style="whiteSpace=wrap;html=1;aspect=fixed;strokeColor=#808080;fillColor=#CCE5FF;" parent="oCfeEF-_Yt_aaLkqjBKR-34" vertex="1">
          <mxGeometry x="1080" y="630" width="80" height="80" as="geometry" />
        </mxCell>
        <mxCell id="oCfeEF-_Yt_aaLkqjBKR-46" value="" style="whiteSpace=wrap;html=1;aspect=fixed;strokeColor=#808080;fillColor=#CCE5FF;" parent="oCfeEF-_Yt_aaLkqjBKR-34" vertex="1">
          <mxGeometry x="1080" y="710" width="80" height="80" as="geometry" />
        </mxCell>
        <mxCell id="oCfeEF-_Yt_aaLkqjBKR-47" value="" style="whiteSpace=wrap;html=1;aspect=fixed;strokeColor=#808080;fillColor=#CCE5FF;" parent="oCfeEF-_Yt_aaLkqjBKR-34" vertex="1">
          <mxGeometry x="840" y="550" width="80" height="80" as="geometry" />
        </mxCell>
        <mxCell id="oCfeEF-_Yt_aaLkqjBKR-48" value="" style="whiteSpace=wrap;html=1;aspect=fixed;strokeColor=#808080;fillColor=#CCE5FF;" parent="oCfeEF-_Yt_aaLkqjBKR-34" vertex="1">
          <mxGeometry x="920" y="550" width="80" height="80" as="geometry" />
        </mxCell>
        <mxCell id="oCfeEF-_Yt_aaLkqjBKR-49" value="" style="whiteSpace=wrap;html=1;aspect=fixed;strokeColor=#808080;fillColor=#CCE5FF;" parent="oCfeEF-_Yt_aaLkqjBKR-34" vertex="1">
          <mxGeometry x="1000" y="550" width="80" height="80" as="geometry" />
        </mxCell>
        <mxCell id="oCfeEF-_Yt_aaLkqjBKR-50" value="" style="whiteSpace=wrap;html=1;aspect=fixed;strokeColor=#808080;fillColor=#CCE5FF;" parent="oCfeEF-_Yt_aaLkqjBKR-34" vertex="1">
          <mxGeometry x="1080" y="550" width="80" height="80" as="geometry" />
        </mxCell>
        <mxCell id="oCfeEF-_Yt_aaLkqjBKR-51" value="Iron Plate Production" style="text;html=1;align=left;verticalAlign=middle;whiteSpace=wrap;rounded=0;fontStyle=1" parent="oCfeEF-_Yt_aaLkqjBKR-34" vertex="1">
          <mxGeometry x="840" y="520" width="160" height="30" as="geometry" />
        </mxCell>
        <mxCell id="oCfeEF-_Yt_aaLkqjBKR-52" value="Parts" parent="oCfeEF-_Yt_aaLkqjBKR-0" />
        <mxCell id="oCfeEF-_Yt_aaLkqjBKR-53" value="&lt;b&gt;Constructor&lt;/b&gt;&lt;div&gt;(w x l)&lt;/div&gt;&lt;div&gt;8 m x 10 m&lt;/div&gt;" style="rounded=0;whiteSpace=wrap;html=1;fillColor=#e1d5e7;strokeColor=#9673a6;fontSize=6;" parent="oCfeEF-_Yt_aaLkqjBKR-52" vertex="1">
          <mxGeometry x="600" y="520" width="100" height="80" as="geometry" />
        </mxCell>
        <mxCell id="oCfeEF-_Yt_aaLkqjBKR-54" value="&lt;b&gt;Merger&lt;/b&gt;&lt;div&gt;(w x l)&lt;/div&gt;&lt;div&gt;8 m x 10 m&lt;/div&gt;" style="rounded=0;whiteSpace=wrap;html=1;fillColor=#ffe6cc;strokeColor=#d79b00;fontSize=6;" parent="oCfeEF-_Yt_aaLkqjBKR-52" vertex="1">
          <mxGeometry x="600" y="610" width="40" height="40" as="geometry" />
        </mxCell>
        <mxCell id="oCfeEF-_Yt_aaLkqjBKR-55" value="&lt;b&gt;Splitter&lt;/b&gt;&lt;div&gt;(w x l)&lt;/div&gt;&lt;div&gt;8 m x 10 m&lt;/div&gt;" style="rounded=0;whiteSpace=wrap;html=1;fillColor=#ffe6cc;strokeColor=#d79b00;fontSize=6;" parent="oCfeEF-_Yt_aaLkqjBKR-52" vertex="1">
          <mxGeometry x="650" y="610" width="40" height="40" as="geometry" />
        </mxCell>
        <mxCell id="oCfeEF-_Yt_aaLkqjBKR-56" value="" style="rounded=0;whiteSpace=wrap;html=1;fillColor=#f5f5f5;strokeColor=#666666;fontSize=6;fontColor=#333333;" parent="oCfeEF-_Yt_aaLkqjBKR-52" vertex="1">
          <mxGeometry x="600" y="660" width="10" height="20" as="geometry" />
        </mxCell>
        <mxCell id="oCfeEF-_Yt_aaLkqjBKR-57" value="&lt;b&gt;Assembler&lt;/b&gt;&lt;div&gt;&lt;span style=&quot;background-color: transparent; color: light-dark(rgb(0, 0, 0), rgb(255, 255, 255));&quot;&gt;(w x l)&lt;/span&gt;&lt;div&gt;10 m x 15 m&lt;/div&gt;&lt;/div&gt;" style="rounded=0;whiteSpace=wrap;html=1;fillColor=#d5e8d4;strokeColor=#82b366;fontSize=6;" parent="oCfeEF-_Yt_aaLkqjBKR-52" vertex="1">
          <mxGeometry x="600" y="690" width="150" height="100" as="geometry" />
        </mxCell>
        <mxCell id="oCfeEF-_Yt_aaLkqjBKR-58" value="" style="rounded=0;whiteSpace=wrap;html=1;fillColor=#f5f5f5;strokeColor=#666666;fontSize=6;fontColor=#333333;" parent="oCfeEF-_Yt_aaLkqjBKR-52" vertex="1">
          <mxGeometry x="800" y="600" width="60" height="20" as="geometry" />
        </mxCell>
        <mxCell id="oCfeEF-_Yt_aaLkqjBKR-59" value="&lt;b&gt;Splitter&lt;/b&gt;&lt;div&gt;(w x l)&lt;/div&gt;&lt;div&gt;8 m x 10 m&lt;/div&gt;" style="rounded=0;whiteSpace=wrap;html=1;fillColor=#ffe6cc;strokeColor=#d79b00;fontSize=6;" parent="oCfeEF-_Yt_aaLkqjBKR-52" vertex="1">
          <mxGeometry x="860" y="690" width="40" height="40" as="geometry" />
        </mxCell>
        <mxCell id="oCfeEF-_Yt_aaLkqjBKR-60" value="" style="rounded=0;whiteSpace=wrap;html=1;fillColor=#f5f5f5;strokeColor=#666666;fontSize=6;fontColor=#333333;" parent="oCfeEF-_Yt_aaLkqjBKR-52" vertex="1">
          <mxGeometry x="900" y="700" width="50" height="20" as="geometry" />
        </mxCell>
        <mxCell id="oCfeEF-_Yt_aaLkqjBKR-61" value="&lt;b&gt;Constructor&lt;/b&gt;&lt;div&gt;(w x l)&lt;/div&gt;&lt;div&gt;8 m x 10 m&lt;/div&gt;" style="rounded=0;whiteSpace=wrap;html=1;fillColor=#e1d5e7;strokeColor=#9673a6;fontSize=6;" parent="oCfeEF-_Yt_aaLkqjBKR-52" vertex="1">
          <mxGeometry x="950" y="670" width="100" height="80" as="geometry" />
        </mxCell>
        <mxCell id="oCfeEF-_Yt_aaLkqjBKR-62" value="" style="rounded=0;whiteSpace=wrap;html=1;fillColor=#f5f5f5;strokeColor=#666666;fontSize=6;fontColor=#333333;" parent="oCfeEF-_Yt_aaLkqjBKR-52" vertex="1">
          <mxGeometry x="1050" y="700" width="50" height="20" as="geometry" />
        </mxCell>
        <mxCell id="oCfeEF-_Yt_aaLkqjBKR-63" value="" style="rounded=0;whiteSpace=wrap;html=1;fillColor=#f5f5f5;strokeColor=#666666;fontSize=6;fontColor=#333333;" parent="oCfeEF-_Yt_aaLkqjBKR-52" vertex="1">
          <mxGeometry x="1110" y="630" width="20" height="60" as="geometry" />
        </mxCell>
        <mxCell id="oCfeEF-_Yt_aaLkqjBKR-64" value="&lt;b&gt;Merger&lt;/b&gt;&lt;div&gt;(w x l)&lt;/div&gt;&lt;div&gt;8 m x 10 m&lt;/div&gt;" style="rounded=0;whiteSpace=wrap;html=1;fillColor=#ffe6cc;strokeColor=#d79b00;fontSize=6;" parent="oCfeEF-_Yt_aaLkqjBKR-52" vertex="1">
          <mxGeometry x="1100" y="690" width="40" height="40" as="geometry" />
        </mxCell>
        <mxCell id="oCfeEF-_Yt_aaLkqjBKR-65" value="" style="rounded=0;whiteSpace=wrap;html=1;fillColor=#f5f5f5;strokeColor=#666666;fontSize=6;fontColor=#333333;" parent="oCfeEF-_Yt_aaLkqjBKR-52" vertex="1">
          <mxGeometry x="870" y="630" width="20" height="60" as="geometry" />
        </mxCell>
        <mxCell id="oCfeEF-_Yt_aaLkqjBKR-66" value="&lt;b&gt;Splitter&lt;/b&gt;&lt;div&gt;(w x l)&lt;/div&gt;&lt;div&gt;8 m x 10 m&lt;/div&gt;" style="rounded=0;whiteSpace=wrap;html=1;fillColor=#ffe6cc;strokeColor=#d79b00;fontSize=6;" parent="oCfeEF-_Yt_aaLkqjBKR-52" vertex="1">
          <mxGeometry x="860" y="590" width="40" height="40" as="geometry" />
        </mxCell>
        <mxCell id="oCfeEF-_Yt_aaLkqjBKR-67" value="" style="rounded=0;whiteSpace=wrap;html=1;fillColor=#f5f5f5;strokeColor=#666666;fontSize=6;fontColor=#333333;" parent="oCfeEF-_Yt_aaLkqjBKR-52" vertex="1">
          <mxGeometry x="900" y="600" width="50" height="20" as="geometry" />
        </mxCell>
        <mxCell id="oCfeEF-_Yt_aaLkqjBKR-68" value="&lt;b&gt;Constructor&lt;/b&gt;&lt;div&gt;(w x l)&lt;/div&gt;&lt;div&gt;8 m x 10 m&lt;/div&gt;" style="rounded=0;whiteSpace=wrap;html=1;fillColor=#e1d5e7;strokeColor=#9673a6;fontSize=6;" parent="oCfeEF-_Yt_aaLkqjBKR-52" vertex="1">
          <mxGeometry x="950" y="570" width="100" height="80" as="geometry" />
        </mxCell>
        <mxCell id="oCfeEF-_Yt_aaLkqjBKR-69" value="&lt;b&gt;Merger&lt;/b&gt;&lt;div&gt;(w x l)&lt;/div&gt;&lt;div&gt;8 m x 10 m&lt;/div&gt;" style="rounded=0;whiteSpace=wrap;html=1;fillColor=#ffe6cc;strokeColor=#d79b00;fontSize=6;" parent="oCfeEF-_Yt_aaLkqjBKR-52" vertex="1">
          <mxGeometry x="1100" y="590" width="40" height="40" as="geometry" />
        </mxCell>
        <mxCell id="oCfeEF-_Yt_aaLkqjBKR-70" value="" style="rounded=0;whiteSpace=wrap;html=1;fillColor=#f5f5f5;strokeColor=#666666;fontSize=6;fontColor=#333333;" parent="oCfeEF-_Yt_aaLkqjBKR-52" vertex="1">
          <mxGeometry x="1050" y="600" width="50" height="20" as="geometry" />
        </mxCell>
        <mxCell id="oCfeEF-_Yt_aaLkqjBKR-71" value="" style="rounded=0;whiteSpace=wrap;html=1;fillColor=#f5f5f5;strokeColor=#666666;fontSize=6;fontColor=#333333;" parent="oCfeEF-_Yt_aaLkqjBKR-52" vertex="1">
          <mxGeometry x="1140" y="600" width="60" height="20" as="geometry" />
        </mxCell>
      </root>
    </mxGraphModel>
  </diagram>
  <diagram id="grc-bC52ef_qUXMD5knt" name="Screws">
    <mxGraphModel dx="2377" dy="1201" grid="1" gridSize="10" guides="1" tooltips="1" connect="1" arrows="1" fold="1" page="1" pageScale="1" pageWidth="827" pageHeight="1169" math="0" shadow="0">
      <root>
        <mxCell id="0" />
        <mxCell id="1" parent="0" />
        <mxCell id="lCQD9t2kw3cjWXaG5rgX-1" value="Iron Ingot Production" style="rounded=0;whiteSpace=wrap;html=1;dashed=1;dashPattern=8 8;fillColor=#f5f5f5;fontColor=#333333;strokeColor=#666666;align=right;verticalAlign=bottom;fontStyle=1" vertex="1" parent="1">
          <mxGeometry x="40" y="80" width="500" height="184" as="geometry" />
        </mxCell>
        <mxCell id="lCQD9t2kw3cjWXaG5rgX-2" value="«Smelter»&lt;br&gt;&lt;b&gt;Iron Ingot&lt;/b&gt;" style="html=1;whiteSpace=wrap;" vertex="1" parent="1">
          <mxGeometry x="250" y="190" width="110" height="50" as="geometry" />
        </mxCell>
        <mxCell id="lCQD9t2kw3cjWXaG5rgX-4" value="«Miner Mk. 1»&lt;br&gt;&lt;b&gt;Impure&lt;/b&gt;" style="html=1;whiteSpace=wrap;" vertex="1" parent="1">
          <mxGeometry x="60" y="190" width="110" height="50" as="geometry" />
        </mxCell>
        <mxCell id="lCQD9t2kw3cjWXaG5rgX-5" value="" style="endArrow=classic;html=1;rounded=0;exitX=1;exitY=0.5;exitDx=0;exitDy=0;entryX=0;entryY=0.5;entryDx=0;entryDy=0;" edge="1" parent="1" source="lCQD9t2kw3cjWXaG5rgX-4" target="lCQD9t2kw3cjWXaG5rgX-2">
          <mxGeometry width="50" height="50" relative="1" as="geometry">
            <mxPoint x="450" y="390" as="sourcePoint" />
            <mxPoint x="530" y="390" as="targetPoint" />
          </mxGeometry>
        </mxCell>
        <mxCell id="lCQD9t2kw3cjWXaG5rgX-6" value="30 / min" style="edgeLabel;html=1;align=center;verticalAlign=middle;resizable=0;points=[];" vertex="1" connectable="0" parent="lCQD9t2kw3cjWXaG5rgX-5">
          <mxGeometry x="0.0548" y="1" relative="1" as="geometry">
            <mxPoint y="-14" as="offset" />
          </mxGeometry>
        </mxCell>
        <mxCell id="lCQD9t2kw3cjWXaG5rgX-7" value="«Miner Mk. 1»&lt;br&gt;&lt;b&gt;Normal&lt;/b&gt;" style="html=1;whiteSpace=wrap;" vertex="1" parent="1">
          <mxGeometry x="60" y="100" width="110" height="50" as="geometry" />
        </mxCell>
        <mxCell id="lCQD9t2kw3cjWXaG5rgX-8" value="" style="endArrow=classic;html=1;rounded=0;exitX=1;exitY=0.5;exitDx=0;exitDy=0;" edge="1" parent="1" source="lCQD9t2kw3cjWXaG5rgX-7">
          <mxGeometry width="50" height="50" relative="1" as="geometry">
            <mxPoint x="310" y="210" as="sourcePoint" />
            <mxPoint x="250" y="125" as="targetPoint" />
          </mxGeometry>
        </mxCell>
        <mxCell id="lCQD9t2kw3cjWXaG5rgX-9" value="60 / min" style="edgeLabel;html=1;align=center;verticalAlign=middle;resizable=0;points=[];" vertex="1" connectable="0" parent="lCQD9t2kw3cjWXaG5rgX-8">
          <mxGeometry x="0.0548" y="1" relative="1" as="geometry">
            <mxPoint y="-14" as="offset" />
          </mxGeometry>
        </mxCell>
        <mxCell id="lCQD9t2kw3cjWXaG5rgX-10" value="&lt;b&gt;Power Usage: 9 MW&lt;/b&gt;&lt;div&gt;&lt;b&gt;&lt;br&gt;&lt;/b&gt;&lt;div&gt;- Miner (5 MW): 1 x 5 MW = 5 MW&lt;/div&gt;&lt;div&gt;- Smelter (4 MW): 1 x 4 MW = 4 MW&lt;/div&gt;&lt;/div&gt;" style="rounded=0;whiteSpace=wrap;html=1;align=left;verticalAlign=top;fillColor=#dae8fc;strokeColor=#6c8ebf;fontSize=8;" vertex="1" parent="1">
          <mxGeometry x="390" y="90" width="140" height="50" as="geometry" />
        </mxCell>
        <mxCell id="lCQD9t2kw3cjWXaG5rgX-11" value="Screws Production" style="rounded=0;whiteSpace=wrap;html=1;dashed=1;dashPattern=8 8;fillColor=#f5f5f5;fontColor=#333333;strokeColor=#666666;align=right;verticalAlign=bottom;fontStyle=1" vertex="1" parent="1">
          <mxGeometry x="1115" y="155" width="460" height="210" as="geometry" />
        </mxCell>
        <mxCell id="lCQD9t2kw3cjWXaG5rgX-12" value="Iron Rod Production" style="rounded=0;whiteSpace=wrap;html=1;dashed=1;dashPattern=8 8;fillColor=#f5f5f5;fontColor=#333333;strokeColor=#666666;align=right;verticalAlign=bottom;fontStyle=1" vertex="1" parent="1">
          <mxGeometry x="600" y="155" width="460" height="210" as="geometry" />
        </mxCell>
        <mxCell id="lCQD9t2kw3cjWXaG5rgX-13" value="«Constructor»&lt;br&gt;&lt;b&gt;Iron Rod&lt;/b&gt;" style="html=1;whiteSpace=wrap;" vertex="1" parent="1">
          <mxGeometry x="780" y="190" width="110" height="50" as="geometry" />
        </mxCell>
        <mxCell id="lCQD9t2kw3cjWXaG5rgX-14" value="" style="endArrow=classic;html=1;rounded=0;exitX=1;exitY=0.5;exitDx=0;exitDy=0;" edge="1" parent="1" source="lCQD9t2kw3cjWXaG5rgX-13">
          <mxGeometry width="50" height="50" relative="1" as="geometry">
            <mxPoint x="890" y="214.76" as="sourcePoint" />
            <mxPoint x="970" y="215" as="targetPoint" />
          </mxGeometry>
        </mxCell>
        <mxCell id="lCQD9t2kw3cjWXaG5rgX-15" value="15 / min" style="edgeLabel;html=1;align=center;verticalAlign=middle;resizable=0;points=[];" vertex="1" connectable="0" parent="lCQD9t2kw3cjWXaG5rgX-14">
          <mxGeometry x="-0.0519" y="-2" relative="1" as="geometry">
            <mxPoint x="-7" y="-17" as="offset" />
          </mxGeometry>
        </mxCell>
        <mxCell id="lCQD9t2kw3cjWXaG5rgX-16" value="Merge" style="rhombus;whiteSpace=wrap;html=1;" vertex="1" parent="1">
          <mxGeometry x="970" y="175" width="80" height="80" as="geometry" />
        </mxCell>
        <mxCell id="lCQD9t2kw3cjWXaG5rgX-17" value="«Constructor»&lt;br&gt;&lt;b&gt;Iron Rod&lt;/b&gt;" style="html=1;whiteSpace=wrap;" vertex="1" parent="1">
          <mxGeometry x="780" y="250" width="110" height="50" as="geometry" />
        </mxCell>
        <mxCell id="lCQD9t2kw3cjWXaG5rgX-18" value="" style="endArrow=classic;html=1;rounded=0;exitX=1;exitY=0.5;exitDx=0;exitDy=0;entryX=0;entryY=0.5;entryDx=0;entryDy=0;edgeStyle=orthogonalEdgeStyle;" edge="1" parent="1" source="lCQD9t2kw3cjWXaG5rgX-17" target="lCQD9t2kw3cjWXaG5rgX-16">
          <mxGeometry width="50" height="50" relative="1" as="geometry">
            <mxPoint x="1060" y="430" as="sourcePoint" />
            <mxPoint x="1137" y="430" as="targetPoint" />
            <Array as="points">
              <mxPoint x="950" y="275" />
              <mxPoint x="950" y="215" />
            </Array>
          </mxGeometry>
        </mxCell>
        <mxCell id="lCQD9t2kw3cjWXaG5rgX-19" value="15 / min" style="edgeLabel;html=1;align=center;verticalAlign=middle;resizable=0;points=[];" vertex="1" connectable="0" parent="lCQD9t2kw3cjWXaG5rgX-18">
          <mxGeometry x="-0.0519" y="-2" relative="1" as="geometry">
            <mxPoint x="-32" y="-9" as="offset" />
          </mxGeometry>
        </mxCell>
        <mxCell id="lCQD9t2kw3cjWXaG5rgX-20" value="" style="endArrow=classic;html=1;rounded=0;entryX=0;entryY=0.5;entryDx=0;entryDy=0;exitX=1;exitY=0.5;exitDx=0;exitDy=0;" edge="1" parent="1" source="lCQD9t2kw3cjWXaG5rgX-22" target="lCQD9t2kw3cjWXaG5rgX-13">
          <mxGeometry width="50" height="50" relative="1" as="geometry">
            <mxPoint x="710" y="215" as="sourcePoint" />
            <mxPoint x="950" y="280" as="targetPoint" />
          </mxGeometry>
        </mxCell>
        <mxCell id="lCQD9t2kw3cjWXaG5rgX-21" value="15 / min" style="edgeLabel;html=1;align=center;verticalAlign=middle;resizable=0;points=[];" vertex="1" connectable="0" parent="lCQD9t2kw3cjWXaG5rgX-20">
          <mxGeometry x="0.219" y="1" relative="1" as="geometry">
            <mxPoint x="1" y="-14" as="offset" />
          </mxGeometry>
        </mxCell>
        <mxCell id="lCQD9t2kw3cjWXaG5rgX-22" value="Split" style="rhombus;whiteSpace=wrap;html=1;" vertex="1" parent="1">
          <mxGeometry x="620" y="175" width="80" height="80" as="geometry" />
        </mxCell>
        <mxCell id="lCQD9t2kw3cjWXaG5rgX-23" value="" style="endArrow=classic;html=1;rounded=0;entryX=0;entryY=0.5;entryDx=0;entryDy=0;exitX=1;exitY=0.5;exitDx=0;exitDy=0;edgeStyle=orthogonalEdgeStyle;" edge="1" parent="1" source="lCQD9t2kw3cjWXaG5rgX-22" target="lCQD9t2kw3cjWXaG5rgX-17">
          <mxGeometry width="50" height="50" relative="1" as="geometry">
            <mxPoint x="740" y="360" as="sourcePoint" />
            <mxPoint x="800" y="360" as="targetPoint" />
            <Array as="points">
              <mxPoint x="710" y="215" />
              <mxPoint x="710" y="275" />
            </Array>
          </mxGeometry>
        </mxCell>
        <mxCell id="lCQD9t2kw3cjWXaG5rgX-24" value="15 / min" style="edgeLabel;html=1;align=center;verticalAlign=middle;resizable=0;points=[];" vertex="1" connectable="0" parent="lCQD9t2kw3cjWXaG5rgX-23">
          <mxGeometry x="0.219" y="1" relative="1" as="geometry">
            <mxPoint x="25" y="-19" as="offset" />
          </mxGeometry>
        </mxCell>
        <mxCell id="lCQD9t2kw3cjWXaG5rgX-25" value="" style="endArrow=classic;html=1;rounded=0;exitX=1;exitY=0.5;exitDx=0;exitDy=0;entryX=0;entryY=0.5;entryDx=0;entryDy=0;" edge="1" parent="1" source="lCQD9t2kw3cjWXaG5rgX-16" target="lCQD9t2kw3cjWXaG5rgX-28">
          <mxGeometry width="50" height="50" relative="1" as="geometry">
            <mxPoint x="1230" y="335" as="sourcePoint" />
            <mxPoint x="1130" y="215" as="targetPoint" />
          </mxGeometry>
        </mxCell>
        <mxCell id="lCQD9t2kw3cjWXaG5rgX-26" value="Iron Rod&lt;div&gt;(30 / min)&lt;/div&gt;" style="edgeLabel;html=1;align=center;verticalAlign=middle;resizable=0;points=[];" vertex="1" connectable="0" parent="lCQD9t2kw3cjWXaG5rgX-25">
          <mxGeometry x="0.0667" relative="1" as="geometry">
            <mxPoint x="-2" y="-25" as="offset" />
          </mxGeometry>
        </mxCell>
        <mxCell id="lCQD9t2kw3cjWXaG5rgX-27" value="&lt;b&gt;Power Usage: 8 MW&lt;/b&gt;&lt;div&gt;&lt;b&gt;&lt;br&gt;&lt;/b&gt;&lt;div&gt;- Constructor (4 MW): 2 x 4 MW = 8 MW&lt;/div&gt;&lt;/div&gt;" style="rounded=0;whiteSpace=wrap;html=1;align=left;verticalAlign=top;fillColor=#dae8fc;strokeColor=#6c8ebf;fontSize=8;" vertex="1" parent="1">
          <mxGeometry x="610" y="306" width="160" height="50" as="geometry" />
        </mxCell>
        <mxCell id="lCQD9t2kw3cjWXaG5rgX-28" value="Split" style="rhombus;whiteSpace=wrap;html=1;" vertex="1" parent="1">
          <mxGeometry x="1130" y="175" width="80" height="80" as="geometry" />
        </mxCell>
        <mxCell id="lCQD9t2kw3cjWXaG5rgX-29" value="«Constructor»&lt;br&gt;&lt;b&gt;Screws&lt;/b&gt;" style="html=1;whiteSpace=wrap;" vertex="1" parent="1">
          <mxGeometry x="1290" y="185" width="110" height="50" as="geometry" />
        </mxCell>
        <mxCell id="lCQD9t2kw3cjWXaG5rgX-30" value="«Constructor»&lt;br&gt;&lt;b&gt;Screws&lt;/b&gt;" style="html=1;whiteSpace=wrap;" vertex="1" parent="1">
          <mxGeometry x="1290" y="245" width="110" height="50" as="geometry" />
        </mxCell>
        <mxCell id="lCQD9t2kw3cjWXaG5rgX-31" value="«Constructor»&lt;br&gt;&lt;b&gt;Screws&lt;/b&gt;" style="html=1;whiteSpace=wrap;" vertex="1" parent="1">
          <mxGeometry x="1290" y="306" width="110" height="50" as="geometry" />
        </mxCell>
        <mxCell id="lCQD9t2kw3cjWXaG5rgX-32" value="" style="endArrow=classic;html=1;rounded=0;exitX=1;exitY=0.5;exitDx=0;exitDy=0;entryX=0;entryY=0.5;entryDx=0;entryDy=0;edgeStyle=orthogonalEdgeStyle;" edge="1" parent="1" source="lCQD9t2kw3cjWXaG5rgX-28" target="lCQD9t2kw3cjWXaG5rgX-29">
          <mxGeometry width="50" height="50" relative="1" as="geometry">
            <mxPoint x="1280" y="255" as="sourcePoint" />
            <mxPoint x="1330" y="205" as="targetPoint" />
            <Array as="points">
              <mxPoint x="1220" y="215" />
              <mxPoint x="1220" y="210" />
            </Array>
          </mxGeometry>
        </mxCell>
        <mxCell id="lCQD9t2kw3cjWXaG5rgX-33" value="Iron Rod&lt;div&gt;(10 / min)&lt;/div&gt;" style="edgeLabel;html=1;align=center;verticalAlign=middle;resizable=0;points=[];" vertex="1" connectable="0" parent="lCQD9t2kw3cjWXaG5rgX-32">
          <mxGeometry x="0.3058" y="1" relative="1" as="geometry">
            <mxPoint x="-1" y="-19" as="offset" />
          </mxGeometry>
        </mxCell>
        <mxCell id="lCQD9t2kw3cjWXaG5rgX-34" value="" style="endArrow=classic;html=1;rounded=0;exitX=1;exitY=0.5;exitDx=0;exitDy=0;entryX=0;entryY=0.5;entryDx=0;entryDy=0;edgeStyle=orthogonalEdgeStyle;" edge="1" parent="1" source="lCQD9t2kw3cjWXaG5rgX-28" target="lCQD9t2kw3cjWXaG5rgX-30">
          <mxGeometry width="50" height="50" relative="1" as="geometry">
            <mxPoint x="1300" y="360" as="sourcePoint" />
            <mxPoint x="1380" y="355" as="targetPoint" />
            <Array as="points">
              <mxPoint x="1220" y="215" />
              <mxPoint x="1220" y="270" />
            </Array>
          </mxGeometry>
        </mxCell>
        <mxCell id="lCQD9t2kw3cjWXaG5rgX-35" value="Iron Rod&lt;div&gt;(10 / min)&lt;/div&gt;" style="edgeLabel;html=1;align=center;verticalAlign=middle;resizable=0;points=[];" vertex="1" connectable="0" parent="lCQD9t2kw3cjWXaG5rgX-34">
          <mxGeometry x="0.3058" y="1" relative="1" as="geometry">
            <mxPoint x="17" y="-19" as="offset" />
          </mxGeometry>
        </mxCell>
        <mxCell id="lCQD9t2kw3cjWXaG5rgX-36" value="" style="endArrow=classic;html=1;rounded=0;exitX=1;exitY=0.5;exitDx=0;exitDy=0;entryX=0;entryY=0.5;entryDx=0;entryDy=0;edgeStyle=orthogonalEdgeStyle;" edge="1" parent="1" source="lCQD9t2kw3cjWXaG5rgX-28" target="lCQD9t2kw3cjWXaG5rgX-31">
          <mxGeometry width="50" height="50" relative="1" as="geometry">
            <mxPoint x="1230" y="385" as="sourcePoint" />
            <mxPoint x="1310" y="440" as="targetPoint" />
            <Array as="points">
              <mxPoint x="1220" y="215" />
              <mxPoint x="1220" y="331" />
            </Array>
          </mxGeometry>
        </mxCell>
        <mxCell id="lCQD9t2kw3cjWXaG5rgX-37" value="Iron Rod&lt;div&gt;(10 / min)&lt;/div&gt;" style="edgeLabel;html=1;align=center;verticalAlign=middle;resizable=0;points=[];" vertex="1" connectable="0" parent="lCQD9t2kw3cjWXaG5rgX-36">
          <mxGeometry x="0.3058" y="1" relative="1" as="geometry">
            <mxPoint x="37" y="-19" as="offset" />
          </mxGeometry>
        </mxCell>
        <mxCell id="lCQD9t2kw3cjWXaG5rgX-38" value="" style="endArrow=classic;html=1;rounded=0;exitX=1;exitY=0.5;exitDx=0;exitDy=0;entryX=0;entryY=0.5;entryDx=0;entryDy=0;" edge="1" parent="1" source="lCQD9t2kw3cjWXaG5rgX-29" target="lCQD9t2kw3cjWXaG5rgX-44">
          <mxGeometry width="50" height="50" relative="1" as="geometry">
            <mxPoint x="1590" y="285" as="sourcePoint" />
            <mxPoint x="1500" y="210" as="targetPoint" />
          </mxGeometry>
        </mxCell>
        <mxCell id="lCQD9t2kw3cjWXaG5rgX-39" value="40 / min" style="edgeLabel;html=1;align=center;verticalAlign=middle;resizable=0;points=[];" vertex="1" connectable="0" parent="lCQD9t2kw3cjWXaG5rgX-38">
          <mxGeometry x="-0.0519" y="-2" relative="1" as="geometry">
            <mxPoint x="-8" y="-17" as="offset" />
          </mxGeometry>
        </mxCell>
        <mxCell id="lCQD9t2kw3cjWXaG5rgX-40" value="" style="endArrow=classic;html=1;rounded=0;exitX=1;exitY=0.5;exitDx=0;exitDy=0;entryX=0;entryY=0.5;entryDx=0;entryDy=0;edgeStyle=orthogonalEdgeStyle;" edge="1" parent="1" source="lCQD9t2kw3cjWXaG5rgX-30" target="lCQD9t2kw3cjWXaG5rgX-44">
          <mxGeometry width="50" height="50" relative="1" as="geometry">
            <mxPoint x="1570" y="335" as="sourcePoint" />
            <mxPoint x="1483.12" y="268.7199999999998" as="targetPoint" />
            <Array as="points">
              <mxPoint x="1460" y="270" />
              <mxPoint x="1460" y="210" />
            </Array>
          </mxGeometry>
        </mxCell>
        <mxCell id="lCQD9t2kw3cjWXaG5rgX-41" value="40 / min" style="edgeLabel;html=1;align=center;verticalAlign=middle;resizable=0;points=[];" vertex="1" connectable="0" parent="lCQD9t2kw3cjWXaG5rgX-40">
          <mxGeometry x="-0.0519" y="-2" relative="1" as="geometry">
            <mxPoint x="-32" y="-9" as="offset" />
          </mxGeometry>
        </mxCell>
        <mxCell id="lCQD9t2kw3cjWXaG5rgX-42" value="" style="endArrow=classic;html=1;rounded=0;exitX=1;exitY=0.5;exitDx=0;exitDy=0;entryX=0;entryY=0.5;entryDx=0;entryDy=0;edgeStyle=orthogonalEdgeStyle;" edge="1" parent="1" source="lCQD9t2kw3cjWXaG5rgX-31" target="lCQD9t2kw3cjWXaG5rgX-44">
          <mxGeometry width="50" height="50" relative="1" as="geometry">
            <mxPoint x="1500" y="365" as="sourcePoint" />
            <mxPoint x="1600" y="331" as="targetPoint" />
            <Array as="points">
              <mxPoint x="1460" y="331" />
              <mxPoint x="1460" y="210" />
            </Array>
          </mxGeometry>
        </mxCell>
        <mxCell id="lCQD9t2kw3cjWXaG5rgX-43" value="40 / min" style="edgeLabel;html=1;align=center;verticalAlign=middle;resizable=0;points=[];" vertex="1" connectable="0" parent="lCQD9t2kw3cjWXaG5rgX-42">
          <mxGeometry x="-0.0519" y="-2" relative="1" as="geometry">
            <mxPoint x="-32" y="19" as="offset" />
          </mxGeometry>
        </mxCell>
        <mxCell id="lCQD9t2kw3cjWXaG5rgX-44" value="Merge" style="rhombus;whiteSpace=wrap;html=1;" vertex="1" parent="1">
          <mxGeometry x="1480" y="170" width="80" height="80" as="geometry" />
        </mxCell>
        <mxCell id="lCQD9t2kw3cjWXaG5rgX-45" value="&lt;b&gt;Power Usage: 12 MW&lt;/b&gt;&lt;div&gt;&lt;b&gt;&lt;br&gt;&lt;/b&gt;&lt;div&gt;- Constructor (4 MW): 3 x 4 MW = 12 MW&lt;/div&gt;&lt;/div&gt;" style="rounded=0;whiteSpace=wrap;html=1;align=left;verticalAlign=top;fillColor=#dae8fc;strokeColor=#6c8ebf;fontSize=8;" vertex="1" parent="1">
          <mxGeometry x="1125" y="306" width="85" height="50" as="geometry" />
        </mxCell>
        <mxCell id="lCQD9t2kw3cjWXaG5rgX-46" value="" style="endArrow=classic;html=1;rounded=0;exitX=1;exitY=0.5;exitDx=0;exitDy=0;entryX=0;entryY=0.5;entryDx=0;entryDy=0;" edge="1" parent="1" source="lCQD9t2kw3cjWXaG5rgX-2" target="lCQD9t2kw3cjWXaG5rgX-22">
          <mxGeometry width="50" height="50" relative="1" as="geometry">
            <mxPoint x="550" y="470" as="sourcePoint" />
            <mxPoint x="630" y="470" as="targetPoint" />
          </mxGeometry>
        </mxCell>
        <mxCell id="lCQD9t2kw3cjWXaG5rgX-47" value="30 / min" style="edgeLabel;html=1;align=center;verticalAlign=middle;resizable=0;points=[];" vertex="1" connectable="0" parent="lCQD9t2kw3cjWXaG5rgX-46">
          <mxGeometry x="0.0548" y="1" relative="1" as="geometry">
            <mxPoint y="-14" as="offset" />
          </mxGeometry>
        </mxCell>
        <mxCell id="h-cf0LWjRJes53v4L2Jw-1" value="" style="endArrow=classic;html=1;rounded=0;strokeColor=#FF0000;exitX=1;exitY=0.5;exitDx=0;exitDy=0;" edge="1" parent="1" source="lCQD9t2kw3cjWXaG5rgX-44">
          <mxGeometry width="50" height="50" relative="1" as="geometry">
            <mxPoint x="870" y="640" as="sourcePoint" />
            <mxPoint x="1660" y="210" as="targetPoint" />
          </mxGeometry>
        </mxCell>
        <mxCell id="h-cf0LWjRJes53v4L2Jw-2" value="Screws&lt;div&gt;(120/min)&lt;/div&gt;" style="edgeLabel;html=1;align=center;verticalAlign=middle;resizable=0;points=[];" vertex="1" connectable="0" parent="h-cf0LWjRJes53v4L2Jw-1">
          <mxGeometry x="0.32" y="1" relative="1" as="geometry">
            <mxPoint x="-6" y="-19" as="offset" />
          </mxGeometry>
        </mxCell>
        <mxCell id="YeHHKh1IoKNt8vbFZpvq-1" value="Foundations" parent="0" />
        <mxCell id="CRDrBw74_p9OnYFs0DcM-1" value="Foundations: 8 m x 8 m&lt;div&gt;Constructors (w x l): 8 m x 10 m&lt;/div&gt;&lt;div&gt;Assembler (w x l): 10 m x 15 m&lt;/div&gt;&lt;div&gt;Conveyor Belt (w x l): 2 m x ? m&lt;/div&gt;&lt;div&gt;Conveyor Merger / Splitter (w x l): 4 m x 4 m&lt;/div&gt;" style="shape=note;whiteSpace=wrap;html=1;backgroundOutline=1;darkOpacity=0.05;size=14;align=left;" vertex="1" parent="YeHHKh1IoKNt8vbFZpvq-1">
          <mxGeometry x="50" y="440" width="270" height="130" as="geometry" />
        </mxCell>
        <mxCell id="CRDrBw74_p9OnYFs0DcM-2" value="" style="endArrow=classic;html=1;rounded=0;" edge="1" parent="YeHHKh1IoKNt8vbFZpvq-1">
          <mxGeometry width="50" height="50" relative="1" as="geometry">
            <mxPoint x="60" y="640" as="sourcePoint" />
            <mxPoint x="90" y="640" as="targetPoint" />
          </mxGeometry>
        </mxCell>
        <mxCell id="CRDrBw74_p9OnYFs0DcM-3" value="Conveyor Belt Mk. 1: 60 / min" style="text;html=1;align=left;verticalAlign=middle;whiteSpace=wrap;rounded=0;" vertex="1" parent="YeHHKh1IoKNt8vbFZpvq-1">
          <mxGeometry x="100" y="630" width="180" height="20" as="geometry" />
        </mxCell>
        <mxCell id="CRDrBw74_p9OnYFs0DcM-4" value="" style="endArrow=classic;html=1;rounded=0;strokeColor=#FF0000;" edge="1" parent="YeHHKh1IoKNt8vbFZpvq-1">
          <mxGeometry width="50" height="50" relative="1" as="geometry">
            <mxPoint x="60" y="660" as="sourcePoint" />
            <mxPoint x="90" y="660" as="targetPoint" />
          </mxGeometry>
        </mxCell>
        <mxCell id="CRDrBw74_p9OnYFs0DcM-5" value="Conveyor Belt Mk. 2: 120 / min" style="text;html=1;align=left;verticalAlign=middle;whiteSpace=wrap;rounded=0;" vertex="1" parent="YeHHKh1IoKNt8vbFZpvq-1">
          <mxGeometry x="100" y="650" width="180" height="20" as="geometry" />
        </mxCell>
        <mxCell id="CRDrBw74_p9OnYFs0DcM-6" value="" style="whiteSpace=wrap;html=1;aspect=fixed;strokeColor=#808080;fillColor=#CCE5FF;" vertex="1" parent="YeHHKh1IoKNt8vbFZpvq-1">
          <mxGeometry x="360" y="440" width="80" height="80" as="geometry" />
        </mxCell>
        <mxCell id="CRDrBw74_p9OnYFs0DcM-7" value="" style="whiteSpace=wrap;html=1;aspect=fixed;strokeColor=#808080;fillColor=#CCE5FF;" vertex="1" parent="YeHHKh1IoKNt8vbFZpvq-1">
          <mxGeometry x="440" y="440" width="80" height="80" as="geometry" />
        </mxCell>
        <mxCell id="CRDrBw74_p9OnYFs0DcM-8" value="" style="whiteSpace=wrap;html=1;aspect=fixed;strokeColor=#808080;fillColor=#CCE5FF;" vertex="1" parent="YeHHKh1IoKNt8vbFZpvq-1">
          <mxGeometry x="360" y="520" width="80" height="80" as="geometry" />
        </mxCell>
        <mxCell id="CRDrBw74_p9OnYFs0DcM-9" value="" style="whiteSpace=wrap;html=1;aspect=fixed;strokeColor=#808080;fillColor=#CCE5FF;" vertex="1" parent="YeHHKh1IoKNt8vbFZpvq-1">
          <mxGeometry x="440" y="520" width="80" height="80" as="geometry" />
        </mxCell>
        <mxCell id="CRDrBw74_p9OnYFs0DcM-10" value="&lt;b&gt;Constructor&lt;/b&gt;&lt;div&gt;(w x l)&lt;/div&gt;&lt;div&gt;8 m x 10 m&lt;/div&gt;" style="rounded=0;whiteSpace=wrap;html=1;fillColor=#e1d5e7;strokeColor=#9673a6;fontSize=6;" vertex="1" parent="YeHHKh1IoKNt8vbFZpvq-1">
          <mxGeometry x="560" y="440" width="100" height="80" as="geometry" />
        </mxCell>
        <mxCell id="CRDrBw74_p9OnYFs0DcM-11" value="&lt;b&gt;Merger&lt;/b&gt;&lt;div&gt;(w x l)&lt;/div&gt;&lt;div&gt;8 m x 10 m&lt;/div&gt;" style="rounded=0;whiteSpace=wrap;html=1;fillColor=#ffe6cc;strokeColor=#d79b00;fontSize=6;" vertex="1" parent="YeHHKh1IoKNt8vbFZpvq-1">
          <mxGeometry x="560" y="530" width="40" height="40" as="geometry" />
        </mxCell>
        <mxCell id="CRDrBw74_p9OnYFs0DcM-12" value="&lt;b&gt;Splitter&lt;/b&gt;&lt;div&gt;(w x l)&lt;/div&gt;&lt;div&gt;8 m x 10 m&lt;/div&gt;" style="rounded=0;whiteSpace=wrap;html=1;fillColor=#ffe6cc;strokeColor=#d79b00;fontSize=6;" vertex="1" parent="YeHHKh1IoKNt8vbFZpvq-1">
          <mxGeometry x="610" y="530" width="40" height="40" as="geometry" />
        </mxCell>
        <mxCell id="CRDrBw74_p9OnYFs0DcM-13" value="" style="rounded=0;whiteSpace=wrap;html=1;fillColor=#f5f5f5;strokeColor=#666666;fontSize=6;fontColor=#333333;" vertex="1" parent="YeHHKh1IoKNt8vbFZpvq-1">
          <mxGeometry x="560" y="580" width="10" height="20" as="geometry" />
        </mxCell>
        <mxCell id="CRDrBw74_p9OnYFs0DcM-14" value="&lt;b&gt;Assembler&lt;/b&gt;&lt;div&gt;&lt;span style=&quot;background-color: transparent; color: light-dark(rgb(0, 0, 0), rgb(255, 255, 255));&quot;&gt;(w x l)&lt;/span&gt;&lt;div&gt;10 m x 15 m&lt;/div&gt;&lt;/div&gt;" style="rounded=0;whiteSpace=wrap;html=1;fillColor=#d5e8d4;strokeColor=#82b366;fontSize=6;" vertex="1" parent="YeHHKh1IoKNt8vbFZpvq-1">
          <mxGeometry x="560" y="610" width="150" height="100" as="geometry" />
        </mxCell>
        <mxCell id="KK2ZGjzJa6UhFDjeJDqk-1" value="" style="whiteSpace=wrap;html=1;aspect=fixed;strokeColor=#808080;fillColor=#CCE5FF;" vertex="1" parent="YeHHKh1IoKNt8vbFZpvq-1">
          <mxGeometry x="880" y="520" width="80" height="80" as="geometry" />
        </mxCell>
        <mxCell id="KK2ZGjzJa6UhFDjeJDqk-2" value="" style="whiteSpace=wrap;html=1;aspect=fixed;strokeColor=#808080;fillColor=#CCE5FF;" vertex="1" parent="YeHHKh1IoKNt8vbFZpvq-1">
          <mxGeometry x="880" y="600" width="80" height="80" as="geometry" />
        </mxCell>
        <mxCell id="KK2ZGjzJa6UhFDjeJDqk-3" value="" style="whiteSpace=wrap;html=1;aspect=fixed;strokeColor=#808080;fillColor=#CCE5FF;" vertex="1" parent="YeHHKh1IoKNt8vbFZpvq-1">
          <mxGeometry x="960" y="520" width="80" height="80" as="geometry" />
        </mxCell>
        <mxCell id="KK2ZGjzJa6UhFDjeJDqk-4" value="" style="whiteSpace=wrap;html=1;aspect=fixed;strokeColor=#808080;fillColor=#CCE5FF;" vertex="1" parent="YeHHKh1IoKNt8vbFZpvq-1">
          <mxGeometry x="1040" y="520" width="80" height="80" as="geometry" />
        </mxCell>
        <mxCell id="KK2ZGjzJa6UhFDjeJDqk-5" value="" style="whiteSpace=wrap;html=1;aspect=fixed;strokeColor=#808080;fillColor=#CCE5FF;" vertex="1" parent="YeHHKh1IoKNt8vbFZpvq-1">
          <mxGeometry x="960" y="600" width="80" height="80" as="geometry" />
        </mxCell>
        <mxCell id="KK2ZGjzJa6UhFDjeJDqk-6" value="" style="whiteSpace=wrap;html=1;aspect=fixed;strokeColor=#808080;fillColor=#CCE5FF;" vertex="1" parent="YeHHKh1IoKNt8vbFZpvq-1">
          <mxGeometry x="1040" y="600" width="80" height="80" as="geometry" />
        </mxCell>
        <mxCell id="KK2ZGjzJa6UhFDjeJDqk-7" value="" style="whiteSpace=wrap;html=1;aspect=fixed;strokeColor=#808080;fillColor=#CCE5FF;" vertex="1" parent="YeHHKh1IoKNt8vbFZpvq-1">
          <mxGeometry x="1120" y="520" width="80" height="80" as="geometry" />
        </mxCell>
        <mxCell id="KK2ZGjzJa6UhFDjeJDqk-8" value="" style="whiteSpace=wrap;html=1;aspect=fixed;strokeColor=#808080;fillColor=#CCE5FF;" vertex="1" parent="YeHHKh1IoKNt8vbFZpvq-1">
          <mxGeometry x="1120" y="600" width="80" height="80" as="geometry" />
        </mxCell>
        <mxCell id="KK2ZGjzJa6UhFDjeJDqk-9" value="" style="whiteSpace=wrap;html=1;aspect=fixed;strokeColor=#808080;fillColor=#CCE5FF;" vertex="1" parent="YeHHKh1IoKNt8vbFZpvq-1">
          <mxGeometry x="880" y="440" width="80" height="80" as="geometry" />
        </mxCell>
        <mxCell id="KK2ZGjzJa6UhFDjeJDqk-10" value="" style="whiteSpace=wrap;html=1;aspect=fixed;strokeColor=#808080;fillColor=#CCE5FF;" vertex="1" parent="YeHHKh1IoKNt8vbFZpvq-1">
          <mxGeometry x="960" y="440" width="80" height="80" as="geometry" />
        </mxCell>
        <mxCell id="KK2ZGjzJa6UhFDjeJDqk-11" value="" style="whiteSpace=wrap;html=1;aspect=fixed;strokeColor=#808080;fillColor=#CCE5FF;" vertex="1" parent="YeHHKh1IoKNt8vbFZpvq-1">
          <mxGeometry x="1040" y="440" width="80" height="80" as="geometry" />
        </mxCell>
        <mxCell id="KK2ZGjzJa6UhFDjeJDqk-12" value="" style="whiteSpace=wrap;html=1;aspect=fixed;strokeColor=#808080;fillColor=#CCE5FF;" vertex="1" parent="YeHHKh1IoKNt8vbFZpvq-1">
          <mxGeometry x="1120" y="440" width="80" height="80" as="geometry" />
        </mxCell>
        <mxCell id="KK2ZGjzJa6UhFDjeJDqk-13" value="Iron Rod Production" style="text;html=1;align=left;verticalAlign=middle;whiteSpace=wrap;rounded=0;fontStyle=1" vertex="1" parent="YeHHKh1IoKNt8vbFZpvq-1">
          <mxGeometry x="880" y="410" width="160" height="30" as="geometry" />
        </mxCell>
        <mxCell id="IGPlPyi354NUn0IhqnLR-42" value="" style="whiteSpace=wrap;html=1;aspect=fixed;strokeColor=#808080;fillColor=#CCE5FF;" vertex="1" parent="YeHHKh1IoKNt8vbFZpvq-1">
          <mxGeometry x="1320" y="520" width="80" height="80" as="geometry" />
        </mxCell>
        <mxCell id="IGPlPyi354NUn0IhqnLR-43" value="" style="whiteSpace=wrap;html=1;aspect=fixed;strokeColor=#808080;fillColor=#CCE5FF;" vertex="1" parent="YeHHKh1IoKNt8vbFZpvq-1">
          <mxGeometry x="1320" y="600" width="80" height="80" as="geometry" />
        </mxCell>
        <mxCell id="IGPlPyi354NUn0IhqnLR-44" value="" style="whiteSpace=wrap;html=1;aspect=fixed;strokeColor=#808080;fillColor=#CCE5FF;" vertex="1" parent="YeHHKh1IoKNt8vbFZpvq-1">
          <mxGeometry x="1400" y="520" width="80" height="80" as="geometry" />
        </mxCell>
        <mxCell id="IGPlPyi354NUn0IhqnLR-45" value="" style="whiteSpace=wrap;html=1;aspect=fixed;strokeColor=#808080;fillColor=#CCE5FF;" vertex="1" parent="YeHHKh1IoKNt8vbFZpvq-1">
          <mxGeometry x="1480" y="520" width="80" height="80" as="geometry" />
        </mxCell>
        <mxCell id="IGPlPyi354NUn0IhqnLR-46" value="" style="whiteSpace=wrap;html=1;aspect=fixed;strokeColor=#808080;fillColor=#CCE5FF;" vertex="1" parent="YeHHKh1IoKNt8vbFZpvq-1">
          <mxGeometry x="1400" y="600" width="80" height="80" as="geometry" />
        </mxCell>
        <mxCell id="IGPlPyi354NUn0IhqnLR-47" value="" style="whiteSpace=wrap;html=1;aspect=fixed;strokeColor=#808080;fillColor=#CCE5FF;" vertex="1" parent="YeHHKh1IoKNt8vbFZpvq-1">
          <mxGeometry x="1480" y="600" width="80" height="80" as="geometry" />
        </mxCell>
        <mxCell id="IGPlPyi354NUn0IhqnLR-48" value="" style="whiteSpace=wrap;html=1;aspect=fixed;strokeColor=#808080;fillColor=#CCE5FF;" vertex="1" parent="YeHHKh1IoKNt8vbFZpvq-1">
          <mxGeometry x="1560" y="520" width="80" height="80" as="geometry" />
        </mxCell>
        <mxCell id="IGPlPyi354NUn0IhqnLR-49" value="" style="whiteSpace=wrap;html=1;aspect=fixed;strokeColor=#808080;fillColor=#CCE5FF;" vertex="1" parent="YeHHKh1IoKNt8vbFZpvq-1">
          <mxGeometry x="1560" y="600" width="80" height="80" as="geometry" />
        </mxCell>
        <mxCell id="IGPlPyi354NUn0IhqnLR-50" value="" style="whiteSpace=wrap;html=1;aspect=fixed;strokeColor=#808080;fillColor=#CCE5FF;" vertex="1" parent="YeHHKh1IoKNt8vbFZpvq-1">
          <mxGeometry x="1320" y="440" width="80" height="80" as="geometry" />
        </mxCell>
        <mxCell id="IGPlPyi354NUn0IhqnLR-51" value="" style="whiteSpace=wrap;html=1;aspect=fixed;strokeColor=#808080;fillColor=#CCE5FF;" vertex="1" parent="YeHHKh1IoKNt8vbFZpvq-1">
          <mxGeometry x="1400" y="440" width="80" height="80" as="geometry" />
        </mxCell>
        <mxCell id="IGPlPyi354NUn0IhqnLR-52" value="" style="whiteSpace=wrap;html=1;aspect=fixed;strokeColor=#808080;fillColor=#CCE5FF;" vertex="1" parent="YeHHKh1IoKNt8vbFZpvq-1">
          <mxGeometry x="1480" y="440" width="80" height="80" as="geometry" />
        </mxCell>
        <mxCell id="IGPlPyi354NUn0IhqnLR-53" value="" style="whiteSpace=wrap;html=1;aspect=fixed;strokeColor=#808080;fillColor=#CCE5FF;" vertex="1" parent="YeHHKh1IoKNt8vbFZpvq-1">
          <mxGeometry x="1560" y="440" width="80" height="80" as="geometry" />
        </mxCell>
        <mxCell id="IGPlPyi354NUn0IhqnLR-54" value="Screw Production" style="text;html=1;align=left;verticalAlign=middle;whiteSpace=wrap;rounded=0;fontStyle=1" vertex="1" parent="YeHHKh1IoKNt8vbFZpvq-1">
          <mxGeometry x="1320" y="410" width="160" height="30" as="geometry" />
        </mxCell>
        <mxCell id="IGPlPyi354NUn0IhqnLR-55" value="" style="whiteSpace=wrap;html=1;aspect=fixed;strokeColor=#808080;fillColor=#CCE5FF;" vertex="1" parent="YeHHKh1IoKNt8vbFZpvq-1">
          <mxGeometry x="1320" y="680" width="80" height="80" as="geometry" />
        </mxCell>
        <mxCell id="IGPlPyi354NUn0IhqnLR-56" value="" style="whiteSpace=wrap;html=1;aspect=fixed;strokeColor=#808080;fillColor=#CCE5FF;" vertex="1" parent="YeHHKh1IoKNt8vbFZpvq-1">
          <mxGeometry x="1400" y="680" width="80" height="80" as="geometry" />
        </mxCell>
        <mxCell id="IGPlPyi354NUn0IhqnLR-57" value="" style="whiteSpace=wrap;html=1;aspect=fixed;strokeColor=#808080;fillColor=#CCE5FF;" vertex="1" parent="YeHHKh1IoKNt8vbFZpvq-1">
          <mxGeometry x="1480" y="680" width="80" height="80" as="geometry" />
        </mxCell>
        <mxCell id="IGPlPyi354NUn0IhqnLR-58" value="" style="whiteSpace=wrap;html=1;aspect=fixed;strokeColor=#808080;fillColor=#CCE5FF;" vertex="1" parent="YeHHKh1IoKNt8vbFZpvq-1">
          <mxGeometry x="1560" y="680" width="80" height="80" as="geometry" />
        </mxCell>
        <mxCell id="CRDrBw74_p9OnYFs0DcM-15" value="Parts" parent="0" />
        <mxCell id="IGPlPyi354NUn0IhqnLR-15" value="" style="rounded=0;whiteSpace=wrap;html=1;fillColor=#f5f5f5;strokeColor=#666666;fontSize=6;fontColor=#333333;" vertex="1" parent="CRDrBw74_p9OnYFs0DcM-15">
          <mxGeometry x="830" y="490" width="60" height="20" as="geometry" />
        </mxCell>
        <mxCell id="IGPlPyi354NUn0IhqnLR-16" value="&lt;b&gt;Splitter&lt;/b&gt;&lt;div&gt;(w x l)&lt;/div&gt;&lt;div&gt;8 m x 10 m&lt;/div&gt;" style="rounded=0;whiteSpace=wrap;html=1;fillColor=#ffe6cc;strokeColor=#d79b00;fontSize=6;" vertex="1" parent="CRDrBw74_p9OnYFs0DcM-15">
          <mxGeometry x="890" y="580" width="40" height="40" as="geometry" />
        </mxCell>
        <mxCell id="IGPlPyi354NUn0IhqnLR-17" value="" style="rounded=0;whiteSpace=wrap;html=1;fillColor=#f5f5f5;strokeColor=#666666;fontSize=6;fontColor=#333333;" vertex="1" parent="CRDrBw74_p9OnYFs0DcM-15">
          <mxGeometry x="930" y="590" width="50" height="20" as="geometry" />
        </mxCell>
        <mxCell id="IGPlPyi354NUn0IhqnLR-18" value="&lt;b&gt;Constructor&lt;/b&gt;&lt;div&gt;(w x l)&lt;/div&gt;&lt;div&gt;8 m x 10 m&lt;/div&gt;" style="rounded=0;whiteSpace=wrap;html=1;fillColor=#e1d5e7;strokeColor=#9673a6;fontSize=6;" vertex="1" parent="CRDrBw74_p9OnYFs0DcM-15">
          <mxGeometry x="980" y="560" width="100" height="80" as="geometry" />
        </mxCell>
        <mxCell id="IGPlPyi354NUn0IhqnLR-19" value="" style="rounded=0;whiteSpace=wrap;html=1;fillColor=#f5f5f5;strokeColor=#666666;fontSize=6;fontColor=#333333;" vertex="1" parent="CRDrBw74_p9OnYFs0DcM-15">
          <mxGeometry x="1080" y="590" width="50" height="20" as="geometry" />
        </mxCell>
        <mxCell id="IGPlPyi354NUn0IhqnLR-20" value="" style="rounded=0;whiteSpace=wrap;html=1;fillColor=#f5f5f5;strokeColor=#666666;fontSize=6;fontColor=#333333;" vertex="1" parent="CRDrBw74_p9OnYFs0DcM-15">
          <mxGeometry x="1140" y="520" width="20" height="60" as="geometry" />
        </mxCell>
        <mxCell id="IGPlPyi354NUn0IhqnLR-21" value="&lt;b&gt;Merger&lt;/b&gt;&lt;div&gt;(w x l)&lt;/div&gt;&lt;div&gt;8 m x 10 m&lt;/div&gt;" style="rounded=0;whiteSpace=wrap;html=1;fillColor=#ffe6cc;strokeColor=#d79b00;fontSize=6;" vertex="1" parent="CRDrBw74_p9OnYFs0DcM-15">
          <mxGeometry x="1130" y="580" width="40" height="40" as="geometry" />
        </mxCell>
        <mxCell id="IGPlPyi354NUn0IhqnLR-22" value="" style="rounded=0;whiteSpace=wrap;html=1;fillColor=#f5f5f5;strokeColor=#666666;fontSize=6;fontColor=#333333;" vertex="1" parent="CRDrBw74_p9OnYFs0DcM-15">
          <mxGeometry x="900" y="520" width="20" height="60" as="geometry" />
        </mxCell>
        <mxCell id="IGPlPyi354NUn0IhqnLR-23" value="&lt;b&gt;Splitter&lt;/b&gt;&lt;div&gt;(w x l)&lt;/div&gt;&lt;div&gt;8 m x 10 m&lt;/div&gt;" style="rounded=0;whiteSpace=wrap;html=1;fillColor=#ffe6cc;strokeColor=#d79b00;fontSize=6;" vertex="1" parent="CRDrBw74_p9OnYFs0DcM-15">
          <mxGeometry x="890" y="480" width="40" height="40" as="geometry" />
        </mxCell>
        <mxCell id="IGPlPyi354NUn0IhqnLR-24" value="" style="rounded=0;whiteSpace=wrap;html=1;fillColor=#f5f5f5;strokeColor=#666666;fontSize=6;fontColor=#333333;" vertex="1" parent="CRDrBw74_p9OnYFs0DcM-15">
          <mxGeometry x="930" y="490" width="50" height="20" as="geometry" />
        </mxCell>
        <mxCell id="IGPlPyi354NUn0IhqnLR-25" value="&lt;b&gt;Constructor&lt;/b&gt;&lt;div&gt;(w x l)&lt;/div&gt;&lt;div&gt;8 m x 10 m&lt;/div&gt;" style="rounded=0;whiteSpace=wrap;html=1;fillColor=#e1d5e7;strokeColor=#9673a6;fontSize=6;" vertex="1" parent="CRDrBw74_p9OnYFs0DcM-15">
          <mxGeometry x="980" y="460" width="100" height="80" as="geometry" />
        </mxCell>
        <mxCell id="IGPlPyi354NUn0IhqnLR-26" value="&lt;b&gt;Merger&lt;/b&gt;&lt;div&gt;(w x l)&lt;/div&gt;&lt;div&gt;8 m x 10 m&lt;/div&gt;" style="rounded=0;whiteSpace=wrap;html=1;fillColor=#ffe6cc;strokeColor=#d79b00;fontSize=6;" vertex="1" parent="CRDrBw74_p9OnYFs0DcM-15">
          <mxGeometry x="1130" y="480" width="40" height="40" as="geometry" />
        </mxCell>
        <mxCell id="IGPlPyi354NUn0IhqnLR-27" value="" style="rounded=0;whiteSpace=wrap;html=1;fillColor=#f5f5f5;strokeColor=#666666;fontSize=6;fontColor=#333333;" vertex="1" parent="CRDrBw74_p9OnYFs0DcM-15">
          <mxGeometry x="1080" y="490" width="50" height="20" as="geometry" />
        </mxCell>
        <mxCell id="IGPlPyi354NUn0IhqnLR-28" value="" style="rounded=0;whiteSpace=wrap;html=1;fillColor=#f5f5f5;strokeColor=#666666;fontSize=6;fontColor=#333333;" vertex="1" parent="CRDrBw74_p9OnYFs0DcM-15">
          <mxGeometry x="1170" y="490" width="60" height="20" as="geometry" />
        </mxCell>
        <mxCell id="IGPlPyi354NUn0IhqnLR-59" value="" style="rounded=0;whiteSpace=wrap;html=1;fillColor=#f5f5f5;strokeColor=#666666;fontSize=6;fontColor=#333333;" vertex="1" parent="CRDrBw74_p9OnYFs0DcM-15">
          <mxGeometry x="1280" y="490" width="60" height="20" as="geometry" />
        </mxCell>
        <mxCell id="IGPlPyi354NUn0IhqnLR-60" value="&lt;b&gt;Splitter&lt;/b&gt;&lt;div&gt;(w x l)&lt;/div&gt;&lt;div&gt;8 m x 10 m&lt;/div&gt;" style="rounded=0;whiteSpace=wrap;html=1;fillColor=#ffe6cc;strokeColor=#d79b00;fontSize=6;" vertex="1" parent="CRDrBw74_p9OnYFs0DcM-15">
          <mxGeometry x="1340" y="580" width="40" height="40" as="geometry" />
        </mxCell>
        <mxCell id="IGPlPyi354NUn0IhqnLR-61" value="" style="rounded=0;whiteSpace=wrap;html=1;fillColor=#f5f5f5;strokeColor=#666666;fontSize=6;fontColor=#333333;" vertex="1" parent="CRDrBw74_p9OnYFs0DcM-15">
          <mxGeometry x="1380" y="590" width="50" height="20" as="geometry" />
        </mxCell>
        <mxCell id="IGPlPyi354NUn0IhqnLR-62" value="&lt;b&gt;Constructor&lt;/b&gt;&lt;div&gt;(w x l)&lt;/div&gt;&lt;div&gt;8 m x 10 m&lt;/div&gt;" style="rounded=0;whiteSpace=wrap;html=1;fillColor=#e1d5e7;strokeColor=#9673a6;fontSize=6;" vertex="1" parent="CRDrBw74_p9OnYFs0DcM-15">
          <mxGeometry x="1430" y="560" width="100" height="80" as="geometry" />
        </mxCell>
        <mxCell id="IGPlPyi354NUn0IhqnLR-63" value="" style="rounded=0;whiteSpace=wrap;html=1;fillColor=#f5f5f5;strokeColor=#666666;fontSize=6;fontColor=#333333;" vertex="1" parent="CRDrBw74_p9OnYFs0DcM-15">
          <mxGeometry x="1530" y="590" width="50" height="20" as="geometry" />
        </mxCell>
        <mxCell id="IGPlPyi354NUn0IhqnLR-64" value="" style="rounded=0;whiteSpace=wrap;html=1;fillColor=#f5f5f5;strokeColor=#666666;fontSize=6;fontColor=#333333;" vertex="1" parent="CRDrBw74_p9OnYFs0DcM-15">
          <mxGeometry x="1590" y="520" width="20" height="60" as="geometry" />
        </mxCell>
        <mxCell id="IGPlPyi354NUn0IhqnLR-65" value="&lt;b&gt;Merger&lt;/b&gt;&lt;div&gt;(w x l)&lt;/div&gt;&lt;div&gt;8 m x 10 m&lt;/div&gt;" style="rounded=0;whiteSpace=wrap;html=1;fillColor=#ffe6cc;strokeColor=#d79b00;fontSize=6;" vertex="1" parent="CRDrBw74_p9OnYFs0DcM-15">
          <mxGeometry x="1580" y="580" width="40" height="40" as="geometry" />
        </mxCell>
        <mxCell id="IGPlPyi354NUn0IhqnLR-66" value="" style="rounded=0;whiteSpace=wrap;html=1;fillColor=#f5f5f5;strokeColor=#666666;fontSize=6;fontColor=#333333;" vertex="1" parent="CRDrBw74_p9OnYFs0DcM-15">
          <mxGeometry x="1350" y="520" width="20" height="60" as="geometry" />
        </mxCell>
        <mxCell id="IGPlPyi354NUn0IhqnLR-67" value="&lt;b&gt;Splitter&lt;/b&gt;&lt;div&gt;(w x l)&lt;/div&gt;&lt;div&gt;8 m x 10 m&lt;/div&gt;" style="rounded=0;whiteSpace=wrap;html=1;fillColor=#ffe6cc;strokeColor=#d79b00;fontSize=6;" vertex="1" parent="CRDrBw74_p9OnYFs0DcM-15">
          <mxGeometry x="1340" y="480" width="40" height="40" as="geometry" />
        </mxCell>
        <mxCell id="IGPlPyi354NUn0IhqnLR-68" value="" style="rounded=0;whiteSpace=wrap;html=1;fillColor=#f5f5f5;strokeColor=#666666;fontSize=6;fontColor=#333333;" vertex="1" parent="CRDrBw74_p9OnYFs0DcM-15">
          <mxGeometry x="1380" y="490" width="50" height="20" as="geometry" />
        </mxCell>
        <mxCell id="IGPlPyi354NUn0IhqnLR-69" value="&lt;b&gt;Constructor&lt;/b&gt;&lt;div&gt;(w x l)&lt;/div&gt;&lt;div&gt;8 m x 10 m&lt;/div&gt;" style="rounded=0;whiteSpace=wrap;html=1;fillColor=#e1d5e7;strokeColor=#9673a6;fontSize=6;" vertex="1" parent="CRDrBw74_p9OnYFs0DcM-15">
          <mxGeometry x="1430" y="460" width="100" height="80" as="geometry" />
        </mxCell>
        <mxCell id="IGPlPyi354NUn0IhqnLR-70" value="&lt;b&gt;Merger&lt;/b&gt;&lt;div&gt;(w x l)&lt;/div&gt;&lt;div&gt;8 m x 10 m&lt;/div&gt;" style="rounded=0;whiteSpace=wrap;html=1;fillColor=#ffe6cc;strokeColor=#d79b00;fontSize=6;" vertex="1" parent="CRDrBw74_p9OnYFs0DcM-15">
          <mxGeometry x="1580" y="480" width="40" height="40" as="geometry" />
        </mxCell>
        <mxCell id="IGPlPyi354NUn0IhqnLR-71" value="" style="rounded=0;whiteSpace=wrap;html=1;fillColor=#f5f5f5;strokeColor=#666666;fontSize=6;fontColor=#333333;" vertex="1" parent="CRDrBw74_p9OnYFs0DcM-15">
          <mxGeometry x="1530" y="490" width="50" height="20" as="geometry" />
        </mxCell>
        <mxCell id="IGPlPyi354NUn0IhqnLR-72" value="" style="rounded=0;whiteSpace=wrap;html=1;fillColor=#f5f5f5;strokeColor=#666666;fontSize=6;fontColor=#333333;" vertex="1" parent="CRDrBw74_p9OnYFs0DcM-15">
          <mxGeometry x="1620" y="490" width="60" height="20" as="geometry" />
        </mxCell>
        <mxCell id="IGPlPyi354NUn0IhqnLR-73" value="&lt;b&gt;Splitter&lt;/b&gt;&lt;div&gt;(w x l)&lt;/div&gt;&lt;div&gt;8 m x 10 m&lt;/div&gt;" style="rounded=0;whiteSpace=wrap;html=1;fillColor=#ffe6cc;strokeColor=#d79b00;fontSize=6;" vertex="1" parent="CRDrBw74_p9OnYFs0DcM-15">
          <mxGeometry x="1340" y="680" width="40" height="40" as="geometry" />
        </mxCell>
        <mxCell id="IGPlPyi354NUn0IhqnLR-74" value="" style="rounded=0;whiteSpace=wrap;html=1;fillColor=#f5f5f5;strokeColor=#666666;fontSize=6;fontColor=#333333;" vertex="1" parent="CRDrBw74_p9OnYFs0DcM-15">
          <mxGeometry x="1380" y="690" width="50" height="20" as="geometry" />
        </mxCell>
        <mxCell id="IGPlPyi354NUn0IhqnLR-75" value="&lt;b&gt;Constructor&lt;/b&gt;&lt;div&gt;(w x l)&lt;/div&gt;&lt;div&gt;8 m x 10 m&lt;/div&gt;" style="rounded=0;whiteSpace=wrap;html=1;fillColor=#e1d5e7;strokeColor=#9673a6;fontSize=6;" vertex="1" parent="CRDrBw74_p9OnYFs0DcM-15">
          <mxGeometry x="1430" y="660" width="100" height="80" as="geometry" />
        </mxCell>
        <mxCell id="IGPlPyi354NUn0IhqnLR-76" value="" style="rounded=0;whiteSpace=wrap;html=1;fillColor=#f5f5f5;strokeColor=#666666;fontSize=6;fontColor=#333333;" vertex="1" parent="CRDrBw74_p9OnYFs0DcM-15">
          <mxGeometry x="1530" y="690" width="50" height="20" as="geometry" />
        </mxCell>
        <mxCell id="IGPlPyi354NUn0IhqnLR-77" value="&lt;b&gt;Merger&lt;/b&gt;&lt;div&gt;(w x l)&lt;/div&gt;&lt;div&gt;8 m x 10 m&lt;/div&gt;" style="rounded=0;whiteSpace=wrap;html=1;fillColor=#ffe6cc;strokeColor=#d79b00;fontSize=6;" vertex="1" parent="CRDrBw74_p9OnYFs0DcM-15">
          <mxGeometry x="1580" y="680" width="40" height="40" as="geometry" />
        </mxCell>
        <mxCell id="IGPlPyi354NUn0IhqnLR-78" value="" style="rounded=0;whiteSpace=wrap;html=1;fillColor=#f5f5f5;strokeColor=#666666;fontSize=6;fontColor=#333333;" vertex="1" parent="CRDrBw74_p9OnYFs0DcM-15">
          <mxGeometry x="1350" y="620" width="20" height="60" as="geometry" />
        </mxCell>
        <mxCell id="IGPlPyi354NUn0IhqnLR-79" value="" style="rounded=0;whiteSpace=wrap;html=1;fillColor=#f5f5f5;strokeColor=#666666;fontSize=6;fontColor=#333333;" vertex="1" parent="CRDrBw74_p9OnYFs0DcM-15">
          <mxGeometry x="1590" y="620" width="20" height="60" as="geometry" />
        </mxCell>
      </root>
    </mxGraphModel>
  </diagram>
</mxfile>
